<?xml version="1.0" standalone="no"?>
<!DOCTYPE svg PUBLIC "-//W3C//DTD SVG 20010904//EN"
 "http://www.w3.org/TR/2001/REC-SVG-20010904/DTD/svg10.dtd">
<svg version="1.0" xmlns="http://www.w3.org/2000/svg"
 width="1200.000000pt" height="408.000000pt" viewBox="0 0 1200.000000 408.000000"
 preserveAspectRatio="xMidYMid meet">
<g transform="translate(0.000000,408.000000) scale(0.100000,-0.100000)"
fill="#00219b" stroke="none">
<path d="M2396 3145 c-248 -63 -399 -276 -383 -539 13 -223 136 -383 347 -457
93 -32 267 -32 360 0 112 39 191 95 256 183 108 148 131 366 55 533 -52 114
-172 222 -297 266 -78 28 -254 35 -338 14z m259 -254 c101 -45 155 -130 155
-245 0 -90 -29 -156 -93 -212 -134 -118 -353 -69 -425 95 -21 48 -21 174 0
222 60 139 223 201 363 140z"/>
<path d="M7135 3150 c-283 -57 -459 -323 -402 -610 21 -108 56 -178 128 -254
102 -109 227 -160 394 -160 158 0 267 41 372 138 75 69 118 142 143 240 49
193 5 372 -124 500 -71 71 -156 119 -247 141 -68 16 -197 18 -264 5z m246
-266 c146 -73 190 -260 96 -401 -46 -68 -110 -104 -194 -110 -125 -9 -213 36
-266 137 -26 50 -28 62 -25 141 3 75 7 92 33 135 75 120 228 163 356 98z"/>
<path d="M940 2645 l0 -485 130 0 130 0 2 278 3 277 214 -277 213 -278 134 0
134 0 0 485 0 485 -130 0 -130 0 -2 -276 -3 -276 -216 273 -215 274 -132 3
-132 3 0 -486z"/>
<path d="M3200 2645 l0 -485 130 0 130 0 0 171 0 170 22 -3 c18 -2 46 -42 122
-170 l99 -168 153 0 c85 0 154 3 154 8 0 4 -56 93 -124 197 l-124 190 26 14
c83 42 124 114 130 227 7 137 -39 229 -145 286 -68 38 -149 48 -375 48 l-198
0 0 -485z m403 264 c69 -31 69 -167 0 -198 -14 -6 -52 -14 -84 -18 l-59 -6 0
123 0 123 59 -6 c32 -4 70 -12 84 -18z"/>
<path d="M4037 3123 c-4 -3 -7 -62 -7 -130 l0 -123 105 0 105 0 0 -355 0 -355
130 0 130 0 0 355 0 355 100 0 100 0 0 130 0 130 -328 0 c-181 0 -332 -3 -335
-7z"/>
<path d="M4850 2645 l0 -485 130 0 130 0 0 185 0 185 170 0 170 0 0 -185 0
-185 130 0 130 0 0 485 0 485 -130 0 -130 0 0 -170 0 -170 -170 0 -170 0 0
170 0 170 -130 0 -130 0 0 -485z"/>
<path d="M5890 2646 l0 -486 130 0 130 0 0 170 c0 225 3 225 135 0 l100 -170
159 0 158 0 -18 28 c-218 332 -238 366 -219 376 10 6 38 28 61 49 54 48 76
111 76 212 -1 96 -28 161 -93 219 -80 72 -109 78 -381 84 l-238 4 0 -486z
m402 263 c24 -13 48 -62 48 -99 0 -37 -24 -86 -48 -99 -10 -5 -46 -13 -80 -17
l-62 -7 0 123 0 123 62 -7 c34 -4 70 -12 80 -17z"/>
<path d="M7940 2646 l0 -486 130 0 130 0 0 164 0 163 133 5 c150 6 185 17 252
79 62 58 87 123 87 229 0 117 -25 183 -96 247 -79 72 -94 75 -383 80 l-253 5
0 -486z m428 257 c40 -30 56 -80 42 -132 -16 -59 -54 -81 -142 -81 l-68 0 0
121 0 122 71 -5 c49 -4 79 -12 97 -25z"/>
<path d="M8790 3000 l0 -130 1005 0 1005 0 0 -960 0 -960 130 0 130 0 0 1090
0 1090 -1135 0 -1135 0 0 -130z"/>
<path d="M2371 1934 c-168 -45 -305 -191 -347 -370 -29 -123 -8 -289 50 -402
24 -47 124 -150 173 -179 146 -85 374 -89 533 -8 59 30 140 116 172 185 33 69
58 189 58 275 l0 65 -245 0 -245 0 0 -105 0 -105 110 0 110 0 -11 -27 c-14
-38 -45 -70 -98 -101 -35 -21 -56 -25 -108 -24 -164 2 -251 114 -241 312 5
104 40 186 101 234 33 27 48 31 112 34 62 4 82 0 128 -21 31 -14 68 -42 88
-65 l34 -41 95 51 c52 28 99 55 104 59 12 11 -35 78 -89 128 -52 48 -125 86
-202 106 -72 19 -211 18 -282 -1z"/>
<path d="M3150 1435 l0 -485 130 0 130 0 0 170 c0 159 1 170 19 170 13 0 47
-47 120 -170 l102 -170 154 0 c85 0 155 2 155 5 0 2 -46 75 -103 162 -56 87
-113 174 -125 194 l-22 36 49 30 c116 73 145 279 58 410 -39 58 -115 106 -193
122 -32 6 -149 11 -266 11 l-208 0 0 -485z m372 275 c52 -15 78 -51 78 -111 0
-36 -6 -55 -24 -76 -21 -24 -32 -28 -95 -31 l-71 -4 0 116 0 116 38 0 c20 0
54 -5 74 -10z"/>
<path d="M4032 1552 l3 -367 33 -67 c56 -115 159 -180 310 -197 197 -22 368
35 446 148 59 85 60 94 64 489 l3 362 -130 0 -131 0 0 -322 c0 -298 -2 -326
-20 -366 -46 -102 -232 -111 -292 -13 -23 35 -23 43 -26 369 l-3 332 -130 0
-130 0 3 -368z"/>
<path d="M5060 1435 l0 -485 130 0 130 0 0 271 0 272 118 -184 118 -184 73 0
74 0 116 182 116 183 3 -270 2 -270 130 0 130 0 0 485 0 485 -129 0 -129 0
-157 -245 -157 -245 -156 245 -157 245 -127 0 -128 0 0 -485z"/>
<path d="M6400 1435 l0 -485 130 0 130 0 2 267 3 267 115 -181 115 -182 72 -1
72 0 118 186 118 186 3 -271 2 -271 130 0 130 0 0 485 0 486 -131 -3 -132 -3
-151 -237 c-83 -130 -153 -239 -156 -241 -3 -3 -75 105 -160 239 l-155 244
-127 0 -128 0 0 -485z"/>
<path d="M8010 1916 c0 -2 -79 -216 -175 -475 -96 -260 -175 -476 -175 -482 0
-6 52 -9 137 -7 l136 3 31 85 32 85 160 3 161 2 33 -90 32 -90 139 0 c77 0
139 3 139 8 0 4 -79 222 -177 485 l-176 477 -149 0 c-81 0 -148 -2 -148 -4z
m194 -454 l45 -132 -93 0 -94 0 46 134 c26 74 48 134 49 133 1 -1 22 -62 47
-135z"/>
<path d="M8790 1435 l0 -485 130 0 130 0 2 277 3 276 213 -276 214 -277 129 0
129 0 0 485 0 485 -130 0 -130 0 -2 -275 -3 -274 -213 274 -213 275 -130 0
-129 0 0 -485z"/>
</g>
</svg>
