<svg xmlns="http://www.w3.org/2000/svg" xmlns:xlink="http://www.w3.org/1999/xlink" viewBox="0 0 4925.93 2514.28"><defs><style>.cls-1{fill:none;}.cls-2{clip-path:url(#clip-path);}.cls-3{fill:#8174ff;}.cls-4{opacity:0.3;}.cls-5{fill:#fff;}.cls-6{fill:#efefef;}.cls-7{fill:#dbdbdb;}.cls-8{opacity:0.2;}.cls-9{fill:#e0e0e0;}.cls-10{fill:#515151;}.cls-11{fill:#bcbcbc;}.cls-12{opacity:0.5;}.cls-13{fill:#8ae9c1;}.cls-14{fill:#878787;}</style><clipPath id="clip-path" transform="translate(331.86 -208.7)"><rect class="cls-1" y="-220.33" width="4419.94" height="1824"/></clipPath></defs><g id="Layer_1" data-name="Layer 1"><g class="cls-2"><path class="cls-3" d="M263.82,1550l410.84,144.38,884.49,40.16L2195.37,1689l500.79,7.73a143.95,143.95,0,0,0,114.49,1.77l22.48.35,1187.59-4.46L3840.05,1628l19-149.87s-10.74.51-30.41,1.39a302.81,302.81,0,0,0,73.08-206.33c-4.7-167.78-144.52-300-312.3-295.29-160.6,4.5-288.59,132.8-295.13,290.92A164,164,0,0,0,3096.06,1292a164,164,0,0,0-286.53,140.65,144.14,144.14,0,0,0-102.32-2.23,143.71,143.71,0,0,0-233.34,62.12c-44.08-4.46-76.68-10.31-94.14-17.82C2226.09,1408.62,2213,935.15,2213,935.15s-8.9,241.65-138.46,507c-18.72-12.07-60-28.12-84-27.45a114.41,114.41,0,0,0-103.7,73.61,66.41,66.41,0,0,0-81-13,128.78,128.78,0,0,0-221.53,6.7,128.88,128.88,0,0,0-149-31,174.36,174.36,0,0,0-301.61-72c0-.73,0-1.46,0-2.19-4.78-170.72-147.06-305.24-317.78-300.46s-305.25,147.06-300.46,317.78a307.8,307.8,0,0,0,61.64,176.81c-34.93.44-54.67.61-54.67.61Zm3118.65-54-33.39,1a164.11,164.11,0,0,0,12.56-24.16A303.44,303.44,0,0,0,3382.47,1496Zm-2286,37.08a172.66,172.66,0,0,0,8.67,26.66l-25.5.77A310.74,310.74,0,0,0,1096.42,1533Z" transform="translate(331.86 -208.7)"/><circle class="cls-3" cx="4347.36" cy="1375.04" r="330.2"/><circle class="cls-3" cx="4263.86" cy="1780.4" r="330.2" transform="translate(321.79 3327.77) rotate(-45)"/><circle class="cls-3" cx="367.26" cy="1600.38" r="330.2" transform="translate(-692.21 519.73) rotate(-45)"/><circle class="cls-3" cx="54.66" cy="1785.34" r="330.2" transform="translate(-914.55 352.87) rotate(-45)"/><path class="cls-4" d="M2213,935.15s.35,4.61,1.16,13C2213.5,939.64,2213,935.15,2213,935.15Z" transform="translate(331.86 -208.7)"/><path class="cls-4" d="M4311,1435.34c-6-127-113.85-225.17-240.89-219.18a230,230,0,0,0-181,102.68,234.84,234.84,0,0,0-86-78.95,291.52,291.52,0,0,0-230.38-112.56c-138.39,0-254.3,96.28-284.42,225.51a183.36,183.36,0,0,0-93.55-27.69A117,117,0,1,0,3013,1460.89q-1.42,5.23-2.56,10.61a117.16,117.16,0,0,0-111.55,22.83,153.34,153.34,0,0,0-286.41,8,116.5,116.5,0,0,0-68.21-24.1,106.91,106.91,0,1,0-211.81-17.43c0,.42,0,.85.05,1.27-115.32-129.21-117.91-434.23-120.19-500.93,1.83,53.5-22.16,253-79.33,488.33-58.3-23.22-107.7,23.41-120.57,58.5a100,100,0,0,0-140.8,15,132.94,132.94,0,0,0-156.34-69.22,89.87,89.87,0,0,0-162.19,29.1,103.39,103.39,0,0,0-71.6,32.52,170.06,170.06,0,0,0-288.82-109.8,169.7,169.7,0,0,0-79.28-39.06A244.22,244.22,0,0,0,724,1342.07q.09-7-.23-14c-6-127-113.84-225.17-240.88-219.18S257.74,1222.7,263.74,1349.75q.54,11.52,2.19,22.71c-108.2,23.18-186.9,121.83-181.51,236,6,127,113.84,225.17,240.88,219.18s225.18-113.84,219.18-240.89q-.54-11.52-2.19-22.71a229.7,229.7,0,0,0,123.14-71.65c-.17,5.1-.21,10.23-.07,15.41a243.12,243.12,0,0,0,35.95,120.92l-79.19-8.23,93.32,247,1000.11-56.82L2252,1767.94l538,12.64,1001.72.74L3840.05,1628a235,235,0,0,0,49-54.42,230.18,230.18,0,0,0,202.75,102.69C4218.87,1670.23,4317,1562.38,4311,1435.34ZM1447.28,1629.88a171.13,171.13,0,0,0,10-14.69,102.74,102.74,0,0,0,5.19,14.1Z" transform="translate(331.86 -208.7)"/><path class="cls-5" d="M3634,1283.31c-106.09,3-193.68,76.17-219.51,173.81a183.86,183.86,0,0,0-105.18,53.42,184.56,184.56,0,0,0-167-114.56,117,117,0,1,0-181.7,135.74q-1.44,5.23-2.56,10.61a117.17,117.17,0,0,0-111.56,22.83,153.34,153.34,0,0,0-286.41,8,116.45,116.45,0,0,0-68.21-24.1A106.91,106.91,0,1,0,2280,1531.66l.06,1.27c-66.51-139.75-71.27-457.4-68.25-514.1-3.17,59.5-9.17,380.1-108.54,516a94.13,94.13,0,0,0-143.31,44,100,100,0,0,0-140.8,15.05,132.94,132.94,0,0,0-156.34-69.22,89.86,89.86,0,0,0-162.18,29.1,103.35,103.35,0,0,0-71.6,32.52,170.07,170.07,0,0,0-288.83-109.8,169.7,169.7,0,0,0-79.28-39.06,244.4,244.4,0,0,0-309.5-85.9,265.64,265.64,0,0,0-100-104.23c-127-74.8-290.51-32.51-365.31,94.45s-32.5,290.51,94.46,365.3A266,266,0,0,0,586,1734.62l77,203.7L1244.28,2723l536.46-42.73,538,12.64,1001.72.74,467.15-994.83a233.42,233.42,0,0,0,86.65-188.32C3870.65,1381.4,3763.08,1279.7,3634,1283.31Z" transform="translate(331.86 -208.7)"/><circle class="cls-5" cx="3961.5" cy="1554.12" r="216.22" transform="translate(393.23 3047.7) rotate(-45)"/><circle class="cls-5" cx="4256.46" cy="1616.41" r="163.98" transform="translate(435.57 3274.51) rotate(-45)"/><circle class="cls-5" cx="294.25" cy="1642.83" r="105.34" transform="translate(-743.6 480.54) rotate(-45)"/><circle class="cls-4" cx="-93.13" cy="1777.58" r="238.73" transform="translate(-952.35 246.09) rotate(-45)"/><circle class="cls-5" cx="483.09" cy="1440.87" r="158.01"/><path class="cls-5" d="M0,1603.67" transform="translate(331.86 -208.7)"/><path class="cls-5" d="M4419.94,1603.67" transform="translate(331.86 -208.7)"/></g></g><g id="Layer_3" data-name="Layer 3"><path class="cls-5" d="M2305.2,743.44l-59.32-.38-.63-46.4-.1-7.61-.28-20-.21-16.12a29.74,29.74,0,0,1,29.54-29.76h0A29.74,29.74,0,0,1,2304,652.68l.24,18.07.23,17.12.1,7.61Z" transform="translate(331.86 -208.7)"/><path class="cls-5" d="M2216.51,797a29.94,29.94,0,0,0,14.93,39.48h0a29.94,29.94,0,0,0,39.48-14.93l33.61-75-54.15-25.11Z" transform="translate(331.86 -208.7)"/><polygon class="cls-3" points="2636.42 486.78 2577.12 487.96 2577.01 480.35 2636.31 479.17 2636.42 486.78"/><rect class="cls-6" x="2232.81" y="720.05" width="76.11" height="44.34" rx="16.79" transform="translate(601.07 -770.74) rotate(14.99)"/><path class="cls-7" d="M2302.94,739.51l-58.5-15.66a2.5,2.5,0,0,1-1.76-3h0a2.49,2.49,0,0,1,3-1.76l58.5,15.66a2.5,2.5,0,0,1,1.76,3h0A2.5,2.5,0,0,1,2302.94,739.51Z" transform="translate(331.86 -208.7)"/><path class="cls-5" d="M2231,649.66a31.18,31.18,0,0,1-3.59,14.68l-2.2,4.09-16,29.69-3.82,7.11-23.32,43.34-56-28.7,24.11-44.82L2154,668l1-1.86,16.69-31A31.44,31.44,0,0,1,2231,649.66Z" transform="translate(331.86 -208.7)"/><path class="cls-7" d="M2300.54,748.46,2242,732.8a2.5,2.5,0,0,1-1.76-3h0a2.5,2.5,0,0,1,3-1.76l58.5,15.66a2.5,2.5,0,0,1,1.76,3h0A2.49,2.49,0,0,1,2300.54,748.46Z" transform="translate(331.86 -208.7)"/><path class="cls-7" d="M2298.14,757.41l-58.5-15.66a2.5,2.5,0,0,1-1.75-3h0a2.49,2.49,0,0,1,3-1.76l58.5,15.66a2.48,2.48,0,0,1,1.75,3h0A2.49,2.49,0,0,1,2298.14,757.41Z" transform="translate(331.86 -208.7)"/><path class="cls-7" d="M2295.75,766.36l-58.5-15.66a2.5,2.5,0,0,1-1.76-3h0a2.49,2.49,0,0,1,3-1.76l58.5,15.66a2.5,2.5,0,0,1,1.76,3h0A2.5,2.5,0,0,1,2295.75,766.36Z" transform="translate(331.86 -208.7)"/><path class="cls-8" d="M2231,649.66a31.18,31.18,0,0,1-3.59,14.68l-2.2,4.09-67.5-2a12.54,12.54,0,0,1-2.69-.36l16.69-31A31.44,31.44,0,0,1,2231,649.66Z" transform="translate(331.86 -208.7)"/><path class="cls-8" d="M2304.22,670.75,2244.87,669l-.21-16.12a29.74,29.74,0,0,1,29.54-29.76h0A29.74,29.74,0,0,1,2304,652.68Z" transform="translate(331.86 -208.7)"/><path class="cls-9" d="M2334.15,637.49l-194-5.69a20.37,20.37,0,0,1-19.71-20.9l4.58-156.16A20.36,20.36,0,0,1,2146,435l194,5.69a20.37,20.37,0,0,1,19.71,20.9l-4.58,156.16A20.36,20.36,0,0,1,2334.15,637.49Z" transform="translate(331.86 -208.7)"/><path class="cls-10" d="M2340.58,501.82l-3.4,115.85c-.15,5.21-6.73,9.28-14.61,9.05l-169.94-5c-7.89-.23-14.21-4.68-14.06-9.89L2142,496Z" transform="translate(331.86 -208.7)"/><path class="cls-5" d="M2496.08,402.84a181.42,181.42,0,0,1-103.42,112.38c-2.61,1.08-5.23,2.09-7.89,3q-5.88,2.12-11.93,3.83a179.33,179.33,0,0,1-38.42,6.5,28.09,28.09,0,0,1-3.16-56.09,123.44,123.44,0,0,0,28-5c2.72-.81,5.4-1.72,8-2.71a125.23,125.23,0,0,0,75.21-79,28.09,28.09,0,0,1,53.53,17Z" transform="translate(331.86 -208.7)"/><rect class="cls-5" x="2138.22" y="469.12" width="202.12" height="183.87" rx="13.27" transform="translate(1944.7 2574.23) rotate(-88.32)"/><path class="cls-3" d="M2367.34,464.8c5.69,13.32,15.47,34.88,25.32,50.42-2.61,1.08-5.23,2.09-7.89,3-8.23-12.78-19.77-32.55-25.47-50.75C2362,466.7,2364.7,465.79,2367.34,464.8Z" transform="translate(331.86 -208.7)"/><path class="cls-5" d="M2182.79,498.62a27.85,27.85,0,0,0,.15-12.27A28.14,28.14,0,0,0,2154.72,464a123.63,123.63,0,0,1-29.55-2.92c-2.54-.56-5.06-1.21-7.55-1.93a125.22,125.22,0,0,1-80.95-72.37,28.08,28.08,0,0,0-51.94,21.37,181.33,181.33,0,0,0,122.16,106.32c2.57.66,5.15,1.27,7.76,1.82l2.71.55a179.48,179.48,0,0,0,38.83,3.32A28,28,0,0,0,2182.79,498.62Z" transform="translate(331.86 -208.7)"/><path class="cls-11" d="M2153.82,457.5c18.82,23.93,50,40,85.61,41.08s67.68-13.21,87.87-36Z" transform="translate(331.86 -208.7)"/><path class="cls-3" d="M2125.17,461.12c-2.54-.56-5.06-1.21-7.55-1.93-1.52,11.67-5.15,36.29-10.73,55.32,2.57.66,5.15,1.27,7.76,1.82C2119.33,501.53,2125.24,479.23,2125.17,461.12Z" transform="translate(331.86 -208.7)"/><rect class="cls-11" x="2201.68" y="528.96" width="76.54" height="32.16" rx="5.5" transform="translate(348.8 -274.12) rotate(1.68)"/><rect class="cls-11" x="2229.71" y="577.81" width="7.74" height="145.04" rx="2.41" transform="translate(1849.92 2655.19) rotate(-88.32)"/><path class="cls-11" d="M2153.26,465.9h0a2.39,2.39,0,0,0-2.5,2.26l-2.35,47.29a2.38,2.38,0,0,0,2.26,2.5h0a2.39,2.39,0,0,0,2.5-2.26l2.35-47.29A2.38,2.38,0,0,0,2153.26,465.9Z" transform="translate(331.86 -208.7)"/><path class="cls-11" d="M2333.89,473.78h0a2.4,2.4,0,0,0-2.49,2.28l-2.06,47.31a2.39,2.39,0,0,0,2.27,2.48h0a2.4,2.4,0,0,0,2.49-2.28l2.06-47.3A2.39,2.39,0,0,0,2333.89,473.78Z" transform="translate(331.86 -208.7)"/><path class="cls-11" d="M2480.33,438.48c-.08.13-.16.26-.23.39-18.7-6-42.32-20.05-50.48-25.09a123.28,123.28,0,0,0,12.93-28,28,28,0,0,1,30.22-19.27h0a28.07,28.07,0,0,1,23.31,36.3A179.87,179.87,0,0,1,2480.33,438.48Z" transform="translate(331.86 -208.7)"/><path class="cls-11" d="M2182.2,543.43h0a1.27,1.27,0,0,1,1.3-1.23l25.15.74a1.27,1.27,0,0,1,1.23,1.3h0a1.28,1.28,0,0,1-1.31,1.23l-25.14-.74A1.27,1.27,0,0,1,2182.2,543.43Z" transform="translate(331.86 -208.7)"/><path class="cls-11" d="M2183.57,542.43h0a1.26,1.26,0,0,1,1.22,1.3l-.73,25.15a1.26,1.26,0,0,1-1.3,1.22h0a1.26,1.26,0,0,1-1.23-1.3l.73-25.14A1.27,1.27,0,0,1,2183.57,542.43Z" transform="translate(331.86 -208.7)"/><path class="cls-5" d="M2499.81,403a186.83,186.83,0,0,1-8.79,22.17c-1.18,2.52-2.43,5-3.74,7.5a4.42,4.42,0,0,1-4.93,2.22c-.21-.06-.43-.12-.64-.2A434.13,434.13,0,0,1,2432.54,411l-.18-.11a3.59,3.59,0,0,1-.68-.54h0a4.34,4.34,0,0,1-.88-1.17,4.44,4.44,0,0,1,0-4.09q2.23-4.21,4.18-8.63a127.88,127.88,0,0,0,4.64-12.12,29.64,29.64,0,0,1,9.6-13.89,31.52,31.52,0,0,1,12.43-6.13,32.52,32.52,0,0,1,11.76-.66,31.75,31.75,0,0,1,24.43,16.78.75.75,0,0,1,.06.13,27.49,27.49,0,0,1,1.37,3A29,29,0,0,1,2499.81,403Z" transform="translate(331.86 -208.7)"/><rect class="cls-11" x="2181.42" y="563.04" width="2.53" height="13.84" rx="1.27" transform="translate(3148.18 -1803.8) rotate(91.68)"/><path class="cls-11" d="M2005.92,446.14c.08.13.17.25.26.38,18.22-7.52,40.72-23.51,48.47-29.22a123.63,123.63,0,0,1-15.23-26.8,28.13,28.13,0,0,0-31.82-16.69h0a28.1,28.1,0,0,0-20.37,38.12A178.52,178.52,0,0,0,2005.92,446.14Z" transform="translate(331.86 -208.7)"/><path class="cls-5" d="M2052.1,413.75a.61.61,0,0,1-.07.1,3.94,3.94,0,0,1-.86.87,1.66,1.66,0,0,1-.21.16l-1.32.9a435.34,435.34,0,0,1-45.73,26.74,2.16,2.16,0,0,1-.34.17h0a4.42,4.42,0,0,1-5.36-1.71q-2.84-4.46-5.4-9a184.77,184.77,0,0,1-9.53-19.49,29,29,0,0,1-.63-20.82,27.15,27.15,0,0,1,1.37-3.31c.1-.22.21-.44.32-.65s.33-.63.5-.94a31.93,31.93,0,0,1,21.47-15.66,32.51,32.51,0,0,1,14.17.17h0a30.79,30.79,0,0,1,3,.88,30.17,30.17,0,0,1,18.15,16.77,131.68,131.68,0,0,0,8.91,17.43c.52.85,1.06,1.69,1.58,2.52A4.41,4.41,0,0,1,2052.1,413.75Z" transform="translate(331.86 -208.7)"/><path class="cls-7" d="M2263.61,571.07l-45.24-1.33a1.33,1.33,0,0,1-1.3-1.38h0a1.34,1.34,0,0,1,1.37-1.3l45.25,1.33a1.34,1.34,0,0,1,1.3,1.37h0A1.35,1.35,0,0,1,2263.61,571.07Z" transform="translate(331.86 -208.7)"/><path class="cls-12" d="M2384.76,354.11a140.54,140.54,0,0,1-22,71.71A588.36,588.36,0,0,1,2293,437.15h0a12,12,0,0,1-11.18,7.78l-41.83.18,3.12-236.41c1.53,0,3.06,0,4.6.06A141.27,141.27,0,0,1,2384.76,354.11Z" transform="translate(331.86 -208.7)"/><path class="cls-7" d="M2263.39,578.81l-45.25-1.33a1.34,1.34,0,0,1-1.3-1.38h0a1.34,1.34,0,0,1,1.38-1.3l45.25,1.33a1.34,1.34,0,0,1,1.3,1.37h0A1.36,1.36,0,0,1,2263.39,578.81Z" transform="translate(331.86 -208.7)"/><path class="cls-7" d="M2263.5,574.94l-45.25-1.33a1.35,1.35,0,0,1-1.3-1.38h0a1.34,1.34,0,0,1,1.38-1.3l45.25,1.33a1.34,1.34,0,0,1,1.3,1.37h0A1.35,1.35,0,0,1,2263.5,574.94Z" transform="translate(331.86 -208.7)"/><polygon class="cls-3" points="2541.11 489.42 2537.28 496.53 2482.07 466.36 2485.89 459.25 2541.11 489.42"/><path class="cls-7" d="M2263.27,582.68,2218,581.35a1.35,1.35,0,0,1-1.31-1.38h0a1.35,1.35,0,0,1,1.38-1.3l45.25,1.33a1.34,1.34,0,0,1,1.3,1.37h0A1.35,1.35,0,0,1,2263.27,582.68Z" transform="translate(331.86 -208.7)"/><path class="cls-7" d="M2263.05,590.41l-45.25-1.32a1.34,1.34,0,0,1-1.3-1.38h0a1.34,1.34,0,0,1,1.38-1.3l45.24,1.33a1.35,1.35,0,0,1,1.31,1.37h0A1.35,1.35,0,0,1,2263.05,590.41Z" transform="translate(331.86 -208.7)"/><path class="cls-7" d="M2263.16,586.54l-45.25-1.32a1.34,1.34,0,0,1-1.3-1.38h0a1.34,1.34,0,0,1,1.38-1.3l45.25,1.33a1.34,1.34,0,0,1,1.3,1.37h0A1.33,1.33,0,0,1,2263.16,586.54Z" transform="translate(331.86 -208.7)"/><rect class="cls-7" x="2174.76" y="607.54" width="23.53" height="23.53" rx="5.5" transform="translate(350.96 -272.53) rotate(1.68)"/><path class="cls-8" d="M2052.17,408.85a4.41,4.41,0,0,1-.07,4.9.61.61,0,0,1-.07.1,3.94,3.94,0,0,1-.86.87,1.66,1.66,0,0,1-.21.16l-1.32.9-2.94-1.06-.75-.27-4.4-1.61-.08,0-1.73-.66-1.31-.49-1.31-.5-.83-.32-4.17-1.62-.52-.21q-2.32-.92-4.64-1.86l-4.79-2c-1.53-.63-3-1.28-4.55-1.93l-4.36-1.88-1.45-.64-.21-.09-.67-.3-3-1.34-4.7-2.15c-1.44-.66-2.87-1.32-4.29-2q-2.62-1.25-5.22-2.5l-3.65-1.79-2-1-2.79-1.41-1-.51c.16-.32.33-.63.5-.94a31.93,31.93,0,0,1,21.47-15.66,32.51,32.51,0,0,1,14.17.17h0a30.79,30.79,0,0,1,3,.88,30.17,30.17,0,0,1,18.15,16.77,131.68,131.68,0,0,0,8.91,17.43C2051.11,407.18,2051.65,408,2052.17,408.85Z" transform="translate(331.86 -208.7)"/><path class="cls-8" d="M2497.94,380.57q-14.66,8-29.83,15.09-12.46,5.85-25.25,11.07-5.22,2.14-10.5,4.16a3.59,3.59,0,0,1-.68-.54h0a4.34,4.34,0,0,1-.88-1.17,4.44,4.44,0,0,1,0-4.09q2.23-4.21,4.18-8.63a127.88,127.88,0,0,0,4.64-12.12,29.64,29.64,0,0,1,9.6-13.89,31.52,31.52,0,0,1,12.43-6.13,32.52,32.52,0,0,1,11.76-.66,31.75,31.75,0,0,1,24.43,16.78A.75.75,0,0,1,2497.94,380.57Z" transform="translate(331.86 -208.7)"/><path class="cls-7" d="M2229.81,601.82h10.62a6.46,6.46,0,0,1,6.46,6.46v19.55a6.45,6.45,0,0,1-6.45,6.45h-10.62a6.46,6.46,0,0,1-6.46-6.46V608.27A6.46,6.46,0,0,1,2229.81,601.82Z" transform="translate(350.94 -273.96) rotate(1.68)"/><rect class="cls-7" x="2270.91" y="610.36" width="23.53" height="23.53" rx="5.5" transform="translate(351.08 -275.34) rotate(1.68)"/><path class="cls-3" d="M2275.52,535.81a2.83,2.83,0,1,1-2.74-2.91A2.84,2.84,0,0,1,2275.52,535.81Z" transform="translate(331.86 -208.7)"/><path class="cls-13" d="M2268.08,535.59a2.83,2.83,0,1,1-2.74-2.91A2.84,2.84,0,0,1,2268.08,535.59Z" transform="translate(331.86 -208.7)"/><path class="cls-5" d="M2183.7,829.37a31.76,31.76,0,0,1-33,30.24h0a31.75,31.75,0,0,1-30.23-33l4.88-107.35,63.29,2.13Z" transform="translate(331.86 -208.7)"/><rect class="cls-6" x="2118.38" y="716.76" width="80.74" height="47.04" rx="17.81" transform="matrix(-0.99, -0.13, 0.13, -0.99, 4539.75, 1536.18)"/><path class="cls-7" d="M2128.33,724.76l63.74,8a2.64,2.64,0,0,0,2.94-2.28h0a2.64,2.64,0,0,0-2.29-2.94l-63.73-8a2.64,2.64,0,0,0-2.94,2.28h0A2.64,2.64,0,0,0,2128.33,724.76Z" transform="translate(331.86 -208.7)"/><path class="cls-7" d="M2127.1,734.51l63.74,8a2.64,2.64,0,0,0,2.94-2.28h0a2.64,2.64,0,0,0-2.29-2.94l-63.73-8a2.64,2.64,0,0,0-2.94,2.28h0A2.64,2.64,0,0,0,2127.1,734.51Z" transform="translate(331.86 -208.7)"/><path class="cls-7" d="M2125.87,744.27l63.74,8a2.63,2.63,0,0,0,2.94-2.28h0a2.65,2.65,0,0,0-2.29-2.94l-63.73-8a2.64,2.64,0,0,0-2.94,2.28h0A2.66,2.66,0,0,0,2125.87,744.27Z" transform="translate(331.86 -208.7)"/><path class="cls-7" d="M2124.64,754l63.74,8a2.65,2.65,0,0,0,2.94-2.29h0a2.65,2.65,0,0,0-2.29-2.94l-63.73-8a2.64,2.64,0,0,0-2.94,2.29h0A2.65,2.65,0,0,0,2124.64,754Z" transform="translate(331.86 -208.7)"/><rect class="cls-6" x="2045.04" y="453.15" width="63.36" height="36.91" rx="13.98" transform="translate(3892.58 -1264.49) rotate(121.38)"/><path class="cls-7" d="M2071.36,497.86l26.25-43a2.07,2.07,0,0,1,2.84-.69h0a2.06,2.06,0,0,1,.68,2.84l-26.25,43a2.07,2.07,0,0,1-2.84.69h0A2.06,2.06,0,0,1,2071.36,497.86Z" transform="translate(331.86 -208.7)"/><path class="cls-7" d="M2064.77,493.84l26.25-43a2.07,2.07,0,0,1,2.84-.69h0a2.07,2.07,0,0,1,.69,2.84l-26.25,43a2.07,2.07,0,0,1-2.84.69h0A2.07,2.07,0,0,1,2064.77,493.84Z" transform="translate(331.86 -208.7)"/><path class="cls-7" d="M2058.19,489.82l26.25-43a2.06,2.06,0,0,1,2.84-.68h0a2.06,2.06,0,0,1,.68,2.84l-26.25,43a2.07,2.07,0,0,1-2.84.69h0A2.06,2.06,0,0,1,2058.19,489.82Z" transform="translate(331.86 -208.7)"/><path class="cls-7" d="M2051.6,485.81l26.25-43a2.07,2.07,0,0,1,2.84-.69h0a2.07,2.07,0,0,1,.69,2.84l-26.25,43a2.07,2.07,0,0,1-2.84.69h0A2.08,2.08,0,0,1,2051.6,485.81Z" transform="translate(331.86 -208.7)"/><rect class="cls-6" x="2377.88" y="454.69" width="63.36" height="36.91" rx="13.98" transform="translate(3512.35 2595.86) rotate(-119.41)"/><path class="cls-7" d="M2405.1,446.72l24.75,43.92a2.09,2.09,0,0,0,2.82.79h0a2.08,2.08,0,0,0,.78-2.82L2408.7,444.7a2.08,2.08,0,0,0-2.82-.79h0A2.06,2.06,0,0,0,2405.1,446.72Z" transform="translate(331.86 -208.7)"/><path class="cls-7" d="M2398.38,450.51l24.75,43.92a2.08,2.08,0,0,0,2.82.78h0a2.06,2.06,0,0,0,.78-2.81L2402,448.48a2.06,2.06,0,0,0-2.81-.78h0A2.07,2.07,0,0,0,2398.38,450.51Z" transform="translate(331.86 -208.7)"/><path class="cls-7" d="M2391.66,454.3l24.75,43.92a2.08,2.08,0,0,0,2.82.78h0a2.06,2.06,0,0,0,.78-2.81l-24.75-43.92a2.08,2.08,0,0,0-2.81-.79h0A2.08,2.08,0,0,0,2391.66,454.3Z" transform="translate(331.86 -208.7)"/><path class="cls-7" d="M2384.94,458.09,2409.69,502a2.08,2.08,0,0,0,2.82.79h0a2.08,2.08,0,0,0,.78-2.82l-24.75-43.91a2.07,2.07,0,0,0-2.81-.79h0A2.08,2.08,0,0,0,2384.94,458.09Z" transform="translate(331.86 -208.7)"/><circle class="cls-5" cx="2243.56" cy="349.97" r="141.27" transform="translate(741.52 1480.24) rotate(-45)"/><circle class="cls-10" cx="2243.15" cy="363.74" r="108.63" transform="translate(731.66 1483.99) rotate(-45)"/><circle class="cls-14" cx="2264.62" cy="355.48" r="63.47" transform="translate(743.79 1496.75) rotate(-45)"/><rect class="cls-5" x="2087.23" y="298.14" width="30.47" height="87.41" rx="15.23" transform="translate(342.79 -270.18) rotate(1.68)"/><rect class="cls-5" x="2369.74" y="303.15" width="30.47" height="87.41" rx="15.23" transform="translate(343.06 -278.49) rotate(1.68)"/><path class="cls-14" d="M2107.81,310.55l-1.76-.05a9.29,9.29,0,0,0-9.53,9l-1.29,44.08a9.29,9.29,0,0,0,9,9.53l1.75,0Z" transform="translate(331.86 -208.7)"/><path class="cls-5" d="M2307,347.26a6.19,6.19,0,0,0,5.41,5.78h0a6.18,6.18,0,0,0,6.93-6.49A39.83,39.83,0,0,0,2291.6,311a6.17,6.17,0,0,0-8,5.14h0a6.17,6.17,0,0,0,4.25,6.65A27.56,27.56,0,0,1,2307,347.26Z" transform="translate(331.86 -208.7)"/><circle class="cls-5" cx="2270.11" cy="311.45" r="8.79" transform="translate(477.21 960.52) rotate(-29.8)"/><path class="cls-8" d="M2039.74,408.24h0l-2.62-1-.83-.32-4.17-1.62-.52-.2-4.64-1.87-4.79-2c-1.52-.63-3-1.27-4.55-1.93s-2.92-1.25-4.36-1.88l-1.45-.64-.21-.09a15.12,15.12,0,0,1,11.22-5.09,15.23,15.23,0,0,1,14.28,9.76Z" transform="translate(331.86 -208.7)"/><path class="cls-5" d="M2033.63,416.8l-14.93,5.72a7.2,7.2,0,0,1-9.29-4.14l-2.87-7.47a15.24,15.24,0,0,1,8.75-19.62h0a15.24,15.24,0,0,1,19.62,8.75l2.87,7.47A7.22,7.22,0,0,1,2033.63,416.8Z" transform="translate(331.86 -208.7)"/><path class="cls-8" d="M2468.11,391.75q-12.46,5.85-25.25,11.07l2.46-5.28a15.23,15.23,0,0,1,20.19-7.33A15,15,0,0,1,2468.11,391.75Z" transform="translate(331.86 -208.7)"/><path class="cls-5" d="M2477.84,401.85a15.08,15.08,0,0,1-1.41,6.38l-3.39,7.25a7.2,7.2,0,0,1-9.56,3.47L2449,412.18a7.2,7.2,0,0,1-3.47-9.56l.51-1.1,2.87-6.14a15.23,15.23,0,0,1,20.19-7.34,15.24,15.24,0,0,1,8.75,13.81Z" transform="translate(331.86 -208.7)"/><rect class="cls-5" x="2369.74" y="303.15" width="30.47" height="87.41" rx="15.23" transform="translate(343.06 -278.49) rotate(1.68)"/><path class="cls-14" d="M2380.29,315.26l1.75.05a9.3,9.3,0,0,1,9,9.54l-1.29,44.08a9.29,9.29,0,0,1-9.53,9l-1.76-.05Z" transform="translate(331.86 -208.7)"/></g></svg>