<svg xmlns="http://www.w3.org/2000/svg" xmlns:xlink="http://www.w3.org/1999/xlink" width="204.563" height="92.539" viewBox="0 0 204.563 92.539">
  <defs>
    <linearGradient id="linear-gradient" x1="1.039" y1="0.5" x2="0" y2="0.5" gradientUnits="objectBoundingBox">
      <stop offset="0" stop-color="#01befc"/>
      <stop offset="1" stop-color="#3b66f8"/>
    </linearGradient>
  </defs>
  <g id="Group_4257" data-name="Group 4257" transform="translate(-136 -42)">
    <g id="Group_4169" data-name="Group 4169" transform="translate(-687.425 -435.242)">
      <g id="Group_4167" data-name="Group 4167" transform="translate(862.869 504.073)">
        <path id="Path_2271" data-name="Path 2271" d="M876.677,536.669c0-6.24,4.814-10.67,11.555-10.67,4.352,0,7.78,1.887,9.283,5.277l-4.66,2.5a5.168,5.168,0,0,0-4.66-2.85c-3.044,0-5.432,2.118-5.432,5.74s2.388,5.739,5.432,5.739a5.1,5.1,0,0,0,4.66-2.851l4.66,2.543c-1.5,3.312-4.931,5.238-9.283,5.238C881.491,547.338,876.677,542.908,876.677,536.669Z" transform="translate(-876.677 -516.716)" fill="#354164"/>
        <path id="Path_2272" data-name="Path 2272" d="M928.769,538.363H913.092c.578,2.581,2.773,4.16,5.932,4.16a7.026,7.026,0,0,0,5.2-2l3.2,3.466c-1.926,2.2-4.814,3.351-8.551,3.351-7.165,0-11.825-4.506-11.825-10.669,0-6.2,4.737-10.67,11.055-10.67,6.086,0,10.785,4.083,10.785,10.746C928.885,537.207,928.807,537.863,928.769,538.363Zm-15.754-3.506h10.208a5.176,5.176,0,0,0-10.208,0Z" transform="translate(-884.551 -516.716)" fill="#354164"/>
        <path id="Path_2273" data-name="Path 2273" d="M963.121,535.166V547.03h-6.008V536.091c0-3.352-1.541-4.892-4.2-4.892-2.889,0-4.969,1.773-4.969,5.585V547.03h-6.009V526.307h5.739v2.427A9.072,9.072,0,0,1,954.532,526C959.423,526,963.121,528.849,963.121,535.166Z" transform="translate(-893.599 -516.716)" fill="#354164"/>
        <path id="Path_2274" data-name="Path 2274" d="M990.371,544.532a8.587,8.587,0,0,1-4.892,1.31c-4.892,0-7.742-2.5-7.742-7.434V529.9h-3.2v-4.622h3.2v-5.046h6.009v5.046h5.161V529.9h-5.161v8.434a2.417,2.417,0,0,0,2.58,2.735,4.052,4.052,0,0,0,2.427-.77Z" transform="translate(-902.053 -515.219)" fill="#354164"/>
        <path id="Path_2275" data-name="Path 2275" d="M1018.35,535.2V547.03h-5.624v-2.581c-1.116,1.887-3.273,2.889-6.316,2.889-4.854,0-7.742-2.7-7.742-6.278,0-3.66,2.581-6.2,8.9-6.2h4.776c0-2.581-1.541-4.082-4.776-4.082a9.965,9.965,0,0,0-5.971,1.925l-2.157-4.2a15.93,15.93,0,0,1,8.936-2.5C1014.692,526,1018.35,528.927,1018.35,535.2Zm-6.008,5.277v-2.118h-4.122c-2.811,0-3.7,1.04-3.7,2.426,0,1.5,1.272,2.5,3.389,2.5A4.427,4.427,0,0,0,1012.342,540.481Z" transform="translate(-908.31 -516.716)" fill="#354164"/>
        <path id="Path_2276" data-name="Path 2276" d="M1053.407,526.415v20.722h-5.7v-2.465a8.387,8.387,0,0,1-6.433,2.773c-5.2,0-8.859-2.927-8.859-9.322V526.415h6.008v10.824c0,3.466,1.541,5.007,4.2,5.007,2.773,0,4.777-1.772,4.777-5.585V526.415Z" transform="translate(-917.06 -516.824)" fill="#354164"/>
        <path id="Path_2277" data-name="Path 2277" d="M1081.16,526v5.546c-.5-.039-.886-.077-1.348-.077-3.313,0-5.509,1.811-5.509,5.778v9.783H1068.3V526.307h5.739v2.735C1075.5,527.039,1077.964,526,1081.16,526Z" transform="translate(-926.364 -516.716)" fill="#354164"/>
        <path id="Path_2278" data-name="Path 2278" d="M1089.511,516.818a3.435,3.435,0,0,1,3.736-3.352c2.234,0,3.737,1.387,3.737,3.235a3.753,3.753,0,0,1-7.473.116Zm.732,6.24h6.009V543.78h-6.009Z" transform="translate(-931.865 -513.466)" fill="#354164"/>
      </g>
      <g id="Group_4168" data-name="Group 4168" transform="translate(823.425 477.242)">
        <path id="Path_2279" data-name="Path 2279" d="M893.947,500.542a1.143,1.143,0,1,1-.012-1.616v0A1.141,1.141,0,0,1,893.947,500.542Zm6.256-9.79a1.53,1.53,0,1,1,0,2.164A1.531,1.531,0,0,1,900.2,490.752Zm-1.328,9.4.007.009a1.2,1.2,0,1,1-.007-.009Zm-1.145-5.229a1.325,1.325,0,1,1-1.875.017A1.315,1.315,0,0,1,897.73,494.922Zm-2.175-6.035a1.43,1.43,0,1,1-2,.289A1.432,1.432,0,0,1,895.555,488.886Zm-4.884-4.932a1.531,1.531,0,1,1,.563,2.09A1.528,1.528,0,0,1,890.671,483.955Zm1.156,9.419a1.266,1.266,0,0,1,.24.231,1.24,1.24,0,1,1-.24-.231Zm-4.267-4.251a1.325,1.325,0,1,1,.5,1.805A1.324,1.324,0,0,1,887.56,489.124Zm-.825,4.349a1.144,1.144,0,1,1-.564-.149,1.127,1.127,0,0,1,.564.15Zm-2.9-9.308a1.43,1.43,0,1,1,.8,1.857A1.429,1.429,0,0,1,883.834,484.165Zm-.583,4.5a1.237,1.237,0,1,1-1.6.706A1.23,1.23,0,0,1,883.251,488.665Zm-3.551-8.8a1.531,1.531,0,1,1,1.481,1.922,1.464,1.464,0,0,1-.393-.051A1.53,1.53,0,0,1,879.7,479.868Zm-1.664,5.8a1.325,1.325,0,1,1,.956,1.613A1.324,1.324,0,0,1,878.036,485.664ZM876.97,490.9a1.143,1.143,0,1,1,.82,1.393A1.143,1.143,0,0,1,876.97,490.9Zm-3.821-9.049a1.428,1.428,0,1,1,1.251,1.587A1.431,1.431,0,0,1,873.149,481.847Zm-.764,5.592a1.238,1.238,0,1,1,1.095,1.365A1.238,1.238,0,0,1,872.385,487.438Zm-.279,4.969a1.068,1.068,0,0,1,1.179-.942h0a1.067,1.067,0,1,1-1.18.941Zm-2.689-1.146a1.143,1.143,0,0,1-.019-2.286h.01a1.143,1.143,0,0,1,.009,2.286Zm.267-5.152a1.325,1.325,0,1,1,1.325-1.325A1.325,1.325,0,0,1,869.684,486.11Zm-.113-8.868a1.531,1.531,0,1,1,.008,3.062h0a1.531,1.531,0,0,1,0-3.062Zm-3.5,15.278a1.068,1.068,0,1,1-1.214-.9h0A1.067,1.067,0,0,1,866.067,492.52Zm-.682-4.933a1.239,1.239,0,1,1-.25-.576A1.239,1.239,0,0,1,865.385,487.587Zm-1.947-6.842a1.428,1.428,0,0,1,1.088,2.538,1.4,1.4,0,0,1-.677.29,1.429,1.429,0,1,1-.411-2.828Zm-6.3,71.357a1.067,1.067,0,1,1,.6,1.386A1.059,1.059,0,0,1,857.139,552.1Zm-8.4-8.64a.988.988,0,1,1-.284.693A.99.99,0,0,1,848.735,543.462Zm.108,8.092a1.24,1.24,0,0,1,.254,1.732,1.237,1.237,0,1,1-.254-1.732Zm-1.941-3.581a1.143,1.143,0,1,1,0-1.615A1.144,1.144,0,0,1,846.9,547.973Zm-1.064-4.324a1.068,1.068,0,1,1,.179-1.5A1.068,1.068,0,0,1,845.838,543.649Zm-1.562-6.3a.989.989,0,1,1-.486.853A.992.992,0,0,1,844.276,537.35Zm-1.5-6.37a.99.99,0,1,1-1.217-.69A.991.991,0,0,1,842.776,530.98Zm-1.2-23.314a1.142,1.142,0,1,1-.432-1.558A1.142,1.142,0,0,1,841.577,507.665Zm.037,4.922a1.067,1.067,0,1,1-.608-1.382A1.066,1.066,0,0,1,841.614,512.587Zm-1.87,7.654a1.068,1.068,0,1,1-.944-1.178A1.066,1.066,0,0,1,839.744,520.242Zm-1.316-4.754a1.142,1.142,0,1,1-.824-1.39A1.144,1.144,0,0,1,838.428,515.488Zm-1.172-10.623a1.325,1.325,0,1,1,.177-.659A1.307,1.307,0,0,1,837.255,504.865Zm-2.319,4.8a1.237,1.237,0,1,1,.693,1.607A1.238,1.238,0,0,1,834.936,509.662Zm1.342,12.711a1.143,1.143,0,1,1-1.143,1.143A1.143,1.143,0,0,1,836.278,522.373Zm-.3,14.334a1.235,1.235,0,0,1,1.461.37,1.192,1.192,0,0,1,.164.276,1.237,1.237,0,1,1-1.625-.645Zm.33-4.235a1.143,1.143,0,1,1,1.4.808A1.143,1.143,0,0,1,836.307,532.473Zm1.495-4.031a1.067,1.067,0,1,1,1.217.893A1.069,1.069,0,0,1,837.8,528.442Zm1.99-4.677v-.009a.984.984,0,1,1,0,.009Zm.69,11.507a1.068,1.068,0,1,1-.315,1.27A1.065,1.065,0,0,1,840.482,535.271Zm2.178-18.771a.989.989,0,0,1-1.947-.247,1.017,1.017,0,0,1,.032-.248.989.989,0,1,1,1.915.5Zm2.744-6.764a.989.989,0,1,1-1.719-.978h0a.989.989,0,0,1,1.72.978Zm0-4.055a1.067,1.067,0,1,1-1.718-1.265,1.036,1.036,0,0,1,.2-.207,1.067,1.067,0,0,1,1.519,1.472Zm1.247-4.756a1.144,1.144,0,1,1-.016-1.616A1.144,1.144,0,0,1,846.653,500.926Zm-.31-5.057a1.237,1.237,0,1,1,1.737.207A1.237,1.237,0,0,1,846.343,495.868Zm3.469,8.048a.989.989,0,0,1-1.409-1.39h0a.989.989,0,1,1,1.408,1.39ZM850.866,500a1.067,1.067,0,0,1-1.334-1.666l.007-.006A1.067,1.067,0,0,1,850.866,500Zm2.429-4.28a1.142,1.142,0,1,1,.4-1.566A1.142,1.142,0,0,1,853.3,495.723Zm4.309.2a1.068,1.068,0,0,1-1.09-1.816,1.085,1.085,0,0,1,.232-.139,1.067,1.067,0,1,1,.858,1.955Zm4.253-4.9a1.142,1.142,0,1,1-1.1-.839A1.143,1.143,0,0,1,861.858,491.018Zm-.935-5.262a1.31,1.31,0,0,1,.046.343,1.328,1.328,0,1,1-.046-.343Zm-3.344-6.911a1.531,1.531,0,0,1,.8,2.956,1.568,1.568,0,0,1-.4.053,1.531,1.531,0,0,1-.4-3.009Zm-1.522,10.813a1.238,1.238,0,1,1-1.472-.365A1.245,1.245,0,0,1,856.056,489.658Zm-3.494-5.835a1.429,1.429,0,0,1,1.453,2.434,1.4,1.4,0,0,1-.318.19,1.429,1.429,0,1,1-1.135-2.624Zm-2.938,5.015a1.325,1.325,0,1,1-.481,1.811A1.327,1.327,0,0,1,849.624,488.838Zm-3.212-5.318a1.53,1.53,0,1,1-.551,2.094A1.527,1.527,0,0,1,846.412,483.519Zm-3.544,6.106a1.43,1.43,0,1,1,1.775,2.242l0,0a1.43,1.43,0,0,1-1.771-2.245Zm-1.541,5.6a1.325,1.325,0,1,1,0,1.874A1.325,1.325,0,0,1,841.326,495.228Zm-1.611,5.9a1.237,1.237,0,0,1,1.732-.249,1.263,1.263,0,0,1,.232.225,1.237,1.237,0,1,1-1.964.024Zm-2.872-10.2a1.53,1.53,0,1,1,.008,2.164A1.532,1.532,0,0,1,836.843,490.929Zm-1.851,6.8a1.43,1.43,0,0,1,2.3,1.707,1.473,1.473,0,0,1-.264.27,1.43,1.43,0,0,1-2.032-1.977Zm-1.081,20.332a1.237,1.237,0,1,1-1.374,1.084A1.232,1.232,0,0,1,833.912,518.06Zm-.339-4.5a1.278,1.278,0,0,1-.044.341,1.324,1.324,0,1,1,.044-.341Zm-2.616,8.72a1.326,1.326,0,0,1,1.33,1.322v0a1.325,1.325,0,1,1-1.33-1.327ZM829.5,507.607a1.429,1.429,0,1,1,.805,1.855A1.426,1.426,0,0,1,829.5,507.607Zm.015-7.053a1.534,1.534,0,1,1,.568,2.089A1.53,1.53,0,0,1,829.513,500.554Zm-1.173,16.758a1.43,1.43,0,1,1-1.583,1.258A1.431,1.431,0,0,1,828.34,517.312Zm-3.408-5.555a1.531,1.531,0,1,1,1.481,1.919,1.608,1.608,0,0,1-.39-.05A1.533,1.533,0,0,1,824.932,511.757Zm.024,13.529a1.527,1.527,0,1,1,.008,0Zm1.985,11.537a1.531,1.531,0,1,1,1.073-1.88A1.527,1.527,0,0,1,826.941,536.823Zm1.619-5.751a1.425,1.425,0,1,1,.675-.288A1.428,1.428,0,0,1,828.56,531.071Zm3.3,16.378a1.531,1.531,0,1,1,.544-2.094A1.526,1.526,0,0,1,831.861,547.449Zm.381-6.163a1.51,1.51,0,0,1-.315.189,1.432,1.432,0,1,1,.315-.189Zm.407-6.36a1.325,1.325,0,1,1,.933-1.626,1.342,1.342,0,0,1,.046.347A1.325,1.325,0,0,1,832.649,534.926Zm1.421-4.957a1.238,1.238,0,1,1,.795-1.989,1.219,1.219,0,0,1,.251.586A1.237,1.237,0,0,1,834.07,529.969Zm1,13.688a1.324,1.324,0,1,1,1.812.478A1.321,1.321,0,0,1,835.069,543.657Zm.8,6.756a1.43,1.43,0,1,1,2.01.229l-.007.005A1.432,1.432,0,0,1,835.873,550.413Zm3.493,6.025a1.533,1.533,0,0,1-2.166.015h0a1.531,1.531,0,1,1,2.166-.013Zm.408-15.619a1.143,1.143,0,1,1,1.562.416A1.143,1.143,0,0,1,839.774,540.819Zm.58,5.906a1.238,1.238,0,1,1,1.941-1.536l0,0a1.237,1.237,0,0,1-1.943,1.533Zm1.128,5.214a1.324,1.324,0,1,1,1.872-.007A1.326,1.326,0,0,1,841.482,551.939Zm4.249,6.3a1.43,1.43,0,1,1,.266-.274A1.43,1.43,0,0,1,845.731,558.24Zm3.2,4.943a1.529,1.529,0,0,1-2.087.573v0a1.531,1.531,0,1,1,2.087-.575Zm2.687-5.392a1.322,1.322,0,1,1,.176-.656A1.324,1.324,0,0,1,851.62,557.791Zm-1.248-8.425a1.068,1.068,0,0,1-.215-1.494,1.084,1.084,0,0,1,.195-.2,1.067,1.067,0,1,1,.02,1.694Zm1.665,2.541a1.143,1.143,0,1,1,.421,1.561A1.14,1.14,0,0,1,852.037,551.907Zm3.706,11.016a1.429,1.429,0,1,1-.81-1.851A1.425,1.425,0,0,1,855.744,562.923Zm.173-4.627a1.237,1.237,0,1,1,1.606-.7A1.235,1.235,0,0,1,855.916,558.3Zm4.011,8.914a1.533,1.533,0,0,1-1.482,1.148,1.555,1.555,0,0,1-.384-.05,1.531,1.531,0,1,1,1.867-1.1Zm1.2-5.906a1.327,1.327,0,1,1,.043-.337A1.393,1.393,0,0,1,861.126,561.3Zm1.081-5.2a1.143,1.143,0,1,1-1.106-1.435,1.079,1.079,0,0,1,.293.038A1.141,1.141,0,0,1,862.208,556.1Zm7.557-.325h0a1.143,1.143,0,1,1-1.144,1.147A1.143,1.143,0,0,1,869.768,555.773Zm.121,5.129a1.325,1.325,0,0,1,1.332,1.318v.007a1.326,1.326,0,1,1-1.332-1.325Zm-3.443,4.282a1.43,1.43,0,0,1-1.58,1.261h0a1.43,1.43,0,1,1,1.581-1.261Zm.333-5.6a1.238,1.238,0,1,1-.257-.907A1.237,1.237,0,0,1,866.776,559.582Zm.324-4.96a1.067,1.067,0,1,1-.934-1.184A1.067,1.067,0,0,1,867.1,554.621Zm2.971,15.16h-.013a1.524,1.524,0,1,1,.013,0Zm21.354-18.94a1.238,1.238,0,0,1,1.739.2l0,.005a1.238,1.238,0,1,1-1.743-.2Zm-5.517.557a1.143,1.143,0,1,1-.41,1.564A1.144,1.144,0,0,1,885.907,551.4Zm-12.768,3.143a1.068,1.068,0,1,1,1.209.9A1.064,1.064,0,0,1,873.139,554.541Zm.638,4.929a1.237,1.237,0,1,1,1.405,1.042A1.237,1.237,0,0,1,873.778,559.471Zm3.05,6.475a1.417,1.417,0,0,1-.67.289h0a1.43,1.43,0,1,1,.669-.29Zm.494-9.888a1.143,1.143,0,0,1,.8-1.4,1.158,1.158,0,0,1,.3-.039,1.143,1.143,0,1,1-1.1,1.441Zm1.325,5.15a1.325,1.325,0,1,1,2.555-.7,1.3,1.3,0,0,1,.047.35,1.325,1.325,0,0,1-2.6.349Zm3.406,6.905a1.517,1.517,0,0,1-.408.056,1.535,1.535,0,1,1,.408-.056Zm2.535-10.291a1.237,1.237,0,1,1,.478-1.9,1.288,1.288,0,0,1,.164.273A1.239,1.239,0,0,1,884.587,557.822Zm2.74,5.089a1.43,1.43,0,1,1,.424-1.7A1.433,1.433,0,0,1,887.327,562.911Zm2.6-4.846a1.325,1.325,0,1,1,.654-1.144A1.325,1.325,0,0,1,889.929,558.065Zm3.267,5.315a1.531,1.531,0,1,1,.539-2.1A1.523,1.523,0,0,1,893.2,563.38Zm-.609-15.531a1.143,1.143,0,1,1,1.616-.008A1.142,1.142,0,0,1,892.586,547.849Zm4.094,9.393-.01.007a1.4,1.4,0,1,1,.01-.007Zm1.512-5.612h0a1.324,1.324,0,1,1,.383-.931A1.324,1.324,0,0,1,898.191,551.63Zm4.53,4.289a1.531,1.531,0,1,1-.02-2.165A1.52,1.52,0,0,1,902.723,555.919Z" transform="translate(-823.425 -477.242)" fill="url(#linear-gradient)"/>
      </g>
    </g>
  </g>
</svg>
