<svg viewBox="0 0 250 40" xmlns="http://www.w3.org/2000/svg" xmlns:xlink="http://www.w3.org/1999/xlink"><defs><path id="a" d="M0 .012h154.077v39.955H0z"/></defs><g fill="none" fill-rule="evenodd"><g transform="translate(1)"><mask id="b" fill="#fff"><use xlink:href="#a"/></mask><path d="M24.953 35.527C21.972 38.675 18.273 40 14.133 40c-4.085 0-7.618-1.492-10.323-4.197C-.055 31.936 0 27.573 0 20.006S-.055 8.076 3.81 4.209C6.515 1.503 9.937.012 14.133.012c8.336 0 13.194 5.467 14.298 12.206h-6.017C21.42 7.91 18.549 5.37 14.133 5.37c-2.32 0-4.417.94-5.797 2.43-1.932 2.1-2.373 4.309-2.373 12.207 0 7.898.441 10.163 2.373 12.262 1.38 1.49 3.478 2.375 5.797 2.375 2.595 0 4.858-.995 6.404-2.762 1.435-1.657 1.987-3.645 1.987-6.186v-2.21h-8.391v-5.08h14.353v6.02c0 5.081-.938 8.34-3.533 11.102m24.4 4.14v-2.816C47.421 38.951 44.716 40 41.9 40c-2.87 0-5.244-.939-6.9-2.54-2.153-2.1-2.816-4.751-2.816-7.899V11.666h5.631v17.067c0 4.363 2.485 6.24 5.631 6.24 3.147 0 5.797-1.932 5.797-6.24V11.666h5.63v28.002h-5.52M75.63 19.564c-.883-2.099-2.87-3.535-5.52-3.535-2.65 0-4.692 1.436-5.575 3.535-.553 1.27-.663 2.099-.718 3.811h12.586c-.055-1.712-.22-2.54-.772-3.81zm-11.813 7.732c0 4.806 2.54 7.844 7.121 7.844 3.147 0 4.803-.884 6.79-2.872l3.59 3.369C78.445 38.508 75.74 40 70.827 40c-7.011 0-12.587-3.7-12.587-14.36 0-9.059 4.692-14.305 11.87-14.305 7.507 0 11.868 5.523 11.868 13.476v2.485H63.817zm36.876-9.058c-1.27-1.27-2.263-1.877-4.195-1.877-3.037 0-5.576 2.43-5.576 6.296v17.011h-5.63V11.666h5.52v3.038c1.435-1.989 4.306-3.37 7.452-3.37 2.705 0 4.748.719 6.68 2.652l-4.25 4.252m16.174-1.878c-5.079 0-5.851 4.309-5.851 9.28 0 4.97.772 9.334 5.851 9.334 5.08 0 5.797-4.364 5.797-9.335 0-4.97-.717-9.278-5.797-9.278zm8.28 21.155c-1.545 1.546-4.03 2.485-6.845 2.485-3.036 0-5.299-.773-7.397-3.314v2.982h-5.52V.343h5.63v14.14c2.043-2.43 4.362-3.148 7.343-3.148 2.815 0 5.244.938 6.79 2.485 2.816 2.817 3.147 7.567 3.147 11.82s-.331 9.058-3.147 11.875zm22.58-17.951c-.883-2.099-2.87-3.535-5.52-3.535-2.65 0-4.693 1.436-5.576 3.535-.553 1.27-.663 2.099-.718 3.811h12.587c-.056-1.712-.22-2.54-.773-3.81zm-11.814 7.732c0 4.806 2.54 7.844 7.122 7.844 3.146 0 4.802-.884 6.79-2.872l3.588 3.369c-2.87 2.871-5.576 4.363-10.49 4.363-7.01 0-12.585-3.7-12.585-14.36 0-9.059 4.691-14.305 11.869-14.305 7.507 0 11.869 5.523 11.869 13.476v2.485h-18.163z" fill="#002541" mask="url(#b)"/></g><path d="M166.474 38.889c-5.32 0-7.783-3.708-7.783-7.689V15.985h-3.247v-4.254h3.247V3.333h5.71v8.398h5.488v4.254h-5.487v14.942c0 2.018 1.007 3.218 3.135 3.218h2.352v4.744h-3.415" fill="#002541"/><path d="M191 0v40" stroke="#002541" stroke-width="1.6"/><path d="M223.222 9.356c0 .964-.83 1.755-1.85 1.755h-7.405c-1.024 0-1.856-.791-1.856-1.755v-7.6c0-.971.832-1.756 1.856-1.756h7.405c1.02 0 1.85.785 1.85 1.756v7.6" fill="#002541"/><path d="M236.556 9.356c0 .964-.83 1.755-1.854 1.755h-7.406c-1.023 0-1.852-.791-1.852-1.755v-7.6c0-.971.83-1.756 1.852-1.756h7.406c1.024 0 1.854.785 1.854 1.756v7.6" fill="#375876"/><path d="M223.222 23.802c0 .97-.83 1.754-1.85 1.754h-7.405c-1.024 0-1.856-.784-1.856-1.754V16.2c0-.968.832-1.756 1.856-1.756h7.405c1.02 0 1.85.788 1.85 1.756v7.602" fill="#002541"/><path d="M236.556 23.802c0 .97-.83 1.754-1.854 1.754h-7.406c-1.023 0-1.852-.784-1.852-1.754V16.2c0-.968.83-1.756 1.852-1.756h7.406c1.024 0 1.854.788 1.854 1.756v7.602" fill="#375876"/><path d="M251 23.802c0 .97-.831 1.754-1.849 1.754h-7.409c-1.025 0-1.853-.784-1.853-1.754V16.2c0-.968.828-1.756 1.853-1.756h7.41c1.017 0 1.848.788 1.848 1.756v7.602" fill="#70889F"/><path d="M223.222 38.237c0 .974-.83 1.763-1.85 1.763h-7.405c-1.024 0-1.856-.789-1.856-1.763v-7.598c0-.963.832-1.75 1.856-1.75h7.405c1.02 0 1.85.787 1.85 1.75v7.598" fill="#002541"/><path d="M236.556 38.237c0 .974-.83 1.763-1.854 1.763h-7.406c-1.023 0-1.852-.789-1.852-1.763v-7.598c0-.963.83-1.75 1.852-1.75h7.406c1.024 0 1.854.787 1.854 1.75v7.598" fill="#375876"/><path d="M251 38.237c0 .974-.83 1.763-1.85 1.763h-7.408c-1.025 0-1.853-.789-1.853-1.763v-7.598c0-.963.828-1.75 1.853-1.75h7.409c1.018 0 1.849.787 1.849 1.75v7.598" fill="#70889F"/><path d="M251 9.354c-.001.965-.832 1.757-1.854 1.757h-7.407c-1.022-.001-1.85-.792-1.85-1.758V1.757c0-.97.83-1.756 1.85-1.756L249.144 0C250.167 0 251 .786 251 1.758v7.596" fill="#E6762B"/><path d="M249.145 11.111h-7.406c-1.022-.001-1.85-.792-1.85-1.757V1.756c0-.969.83-1.755 1.85-1.755L249.144 0c1.024 0 1.855.786 1.855 1.757L251 9.354c-.001.965-.831 1.757-1.855 1.757" fill="#E6762B"/><path d="M249.146 11.111h-7.406c-1.023-.001-1.851-.792-1.851-1.757V1.757c0-.97.83-1.756 1.85-1.756L249.146 0C250.168 0 251 .786 251 1.758v7.596c-.001.965-.831 1.757-1.854 1.757" fill="#E6762C"/><path d="M249.145 11.111h-7.406c-1.022-.001-1.85-.792-1.85-1.758V1.757c0-.97.83-1.756 1.85-1.756L249.144 0C250.167 0 251 .786 251 1.758v7.596c-.001.965-.831 1.757-1.855 1.757" fill="#E6772C"/><path d="M249.145 11.111h-7.406c-1.022 0-1.85-.792-1.85-1.758V1.757c0-.97.83-1.756 1.85-1.756L249.144 0c1.023 0 1.855.786 1.855 1.758L251 9.354c-.001.965-.832 1.757-1.855 1.757" fill="#E6772D"/><path d="M249.145 11.111h-7.406c-1.022 0-1.85-.792-1.85-1.758V1.757c0-.97.83-1.756 1.85-1.756L249.145 0c1.023 0 1.854.787 1.854 1.759L251 9.354c-.001.965-.83 1.757-1.855 1.757" fill="#E6782D"/><path d="M249.146 11.111h-7.407c-1.022-.001-1.85-.793-1.85-1.758V1.757c0-.97.83-1.756 1.85-1.756L249.144 0C250.168 0 251 .786 251 1.758v7.596c-.001.964-.831 1.757-1.854 1.757" fill="#E6782E"/><path d="M249.145 11.111h-7.406c-1.022-.001-1.85-.793-1.85-1.759V1.757c0-.97.83-1.756 1.85-1.756L249.144 0c1.024 0 1.855.786 1.855 1.758L251 9.353c-.001.965-.831 1.758-1.855 1.758" fill="#E6782E"/><path d="M249.145 11.111h-7.405c-1.023-.001-1.851-.793-1.851-1.758V1.757c0-.97.83-1.756 1.85-1.756L249.145 0C250.169 0 251 .787 251 1.758v7.596c-.001.964-.831 1.757-1.855 1.757" fill="#E7792F"/><path d="M249.145 11.111h-7.405c-1.023-.001-1.851-.792-1.851-1.758V1.757c0-.97.83-1.756 1.85-1.756L249.144 0C250.167 0 251 .786 251 1.758v7.596c0 .965-.832 1.757-1.855 1.757" fill="#E77930"/><path d="M249.146 11.111h-7.406c-1.023-.001-1.851-.792-1.851-1.759V1.757c0-.97.83-1.756 1.85-1.756L249.146 0C250.169 0 251 .786 251 1.758v7.595c0 .966-.83 1.758-1.854 1.758" fill="#E77A30"/><path d="M249.145 11.111h-7.405c-1.023-.001-1.851-.793-1.851-1.759V1.757c0-.97.83-1.756 1.85-1.756L249.145 0C250.169 0 251 .786 251 1.758v7.595c-.001.965-.83 1.758-1.855 1.758" fill="#E77A31"/><path d="M248.219 10h-6.664c-.92-.001-1.666-.713-1.666-1.583V1.582c0-.873.748-1.581 1.666-1.581L248.218 0c.921 0 1.67.708 1.67 1.583v6.835c0 .869-.748 1.582-1.67 1.582" fill="#E77B31"/><path d="M248.219 10h-6.664c-.92-.001-1.666-.713-1.666-1.583V1.582c0-.873.747-1.581 1.666-1.581L248.218 0c.921 0 1.67.708 1.67 1.583v6.835c0 .869-.748 1.582-1.67 1.582" fill="#E77B32"/><path d="M248.22 10h-6.666c-.92-.001-1.665-.713-1.665-1.584V1.582c0-.873.747-1.581 1.665-1.581L248.218 0c.922 0 1.67.708 1.67 1.583v6.834c0 .87-.747 1.583-1.669 1.583" fill="#E77B32"/><path d="M248.219 10h-6.664c-.92 0-1.666-.713-1.666-1.583V1.582c0-.873.747-1.581 1.666-1.581L248.218 0c.921 0 1.67.708 1.67 1.583v6.835c0 .869-.748 1.582-1.67 1.582" fill="#E77C33"/><path d="M248.22 10h-6.665c-.92-.001-1.666-.714-1.666-1.583V1.582c0-.873.748-1.58 1.666-1.58L248.218 0c.921 0 1.67.708 1.67 1.583v6.835c0 .868-.748 1.582-1.669 1.582" fill="#E77C33"/><path d="M248.219 10h-6.664c-.92-.001-1.666-.713-1.666-1.583V1.582c0-.873.747-1.58 1.666-1.58L248.218 0c.921 0 1.67.708 1.67 1.583v6.835c0 .869-.747 1.582-1.67 1.582" fill="#E77D34"/><path d="M248.219 10h-6.664c-.92-.001-1.666-.714-1.666-1.583V1.582c0-.873.748-1.58 1.666-1.58L248.218 0c.921 0 1.67.708 1.67 1.583v6.835c0 .868-.748 1.582-1.67 1.582" fill="#E87D34"/><path d="M248.219 10h-6.664c-.92-.001-1.666-.714-1.666-1.583V1.582c0-.873.748-1.58 1.666-1.58L248.218 0c.922 0 1.67.708 1.67 1.583v6.835c0 .868-.747 1.582-1.67 1.582" fill="#E87D35"/><path d="M248.219 10h-6.664c-.921-.001-1.666-.713-1.666-1.583V1.582c0-.873.747-1.58 1.666-1.58L248.218 0c.922 0 1.67.708 1.67 1.583v6.835c0 .869-.747 1.582-1.67 1.582" fill="#E87E35"/><path d="M248.218 10h-6.663c-.92-.001-1.666-.714-1.666-1.584V1.583c0-.874.747-1.582 1.666-1.582L248.217 0c.922 0 1.67.708 1.67 1.584l.002 6.833c-.001.87-.75 1.583-1.67 1.583" fill="#E87E36"/><path d="M248.218 10h-6.663c-.92-.001-1.666-.714-1.666-1.584V1.583c0-.874.748-1.582 1.666-1.582L248.217 0c.922 0 1.67.708 1.67 1.584l.002 6.833c-.001.87-.75 1.583-1.671 1.583" fill="#E87F37"/><path d="M248.219 10h-6.663c-.921-.001-1.667-.713-1.667-1.583V1.582c0-.873.748-1.58 1.667-1.58L248.218 0c.922 0 1.67.708 1.67 1.583v6.835c0 .869-.747 1.582-1.669 1.582" fill="#E87F37"/><path d="M248.219 10h-6.664c-.92-.001-1.666-.714-1.666-1.584V1.583c0-.874.748-1.582 1.666-1.582L248.217 0c.922 0 1.67.708 1.67 1.584l.002 6.833c-.001.869-.75 1.583-1.67 1.583" fill="#E87F38"/><path d="M248.219 10h-6.664c-.92-.001-1.666-.714-1.666-1.584V1.583c0-.874.748-1.582 1.666-1.582L248.218 0c.92 0 1.67.708 1.67 1.584v6.833c0 .87-.748 1.583-1.67 1.583" fill="#E88038"/><path d="M248.218 10h-6.662c-.921 0-1.667-.713-1.667-1.584V1.583c0-.874.748-1.582 1.667-1.582L248.217 0c.922 0 1.67.708 1.67 1.584l.002 6.833c-.001.87-.749 1.583-1.67 1.583" fill="#E88039"/><path d="M248.219 10h-6.663c-.92-.001-1.667-.714-1.667-1.585V1.583c0-.874.749-1.582 1.667-1.582L248.218 0c.921 0 1.67.708 1.67 1.584v6.833c0 .869-.748 1.583-1.67 1.583" fill="#E88139"/><path d="M248.218 10h-6.662c-.921-.001-1.667-.713-1.667-1.584V1.583c0-.873.747-1.582 1.667-1.582L248.217 0c.922 0 1.67.708 1.67 1.584l.002 6.833c-.001.87-.749 1.583-1.671 1.583" fill="#E8813A"/><path d="M248.218 10h-6.662c-.921-.001-1.667-.714-1.667-1.584V1.584c0-.874.748-1.583 1.667-1.583L248.217 0c.923 0 1.67.709 1.67 1.584l.002 6.833c-.001.87-.749 1.583-1.67 1.583" fill="#E9823A"/><path d="M248.217 10h-6.661c-.92-.001-1.667-.714-1.667-1.584V1.583c0-.874.748-1.582 1.667-1.582l6.66-.001c.922 0 1.672.708 1.672 1.584v6.833c0 .869-.749 1.583-1.67 1.583" fill="#E9823B"/><path d="M248.218 10h-6.662c-.92-.001-1.667-.713-1.667-1.584V1.584c0-.874.748-1.583 1.667-1.583l6.66-.001c.923 0 1.672.708 1.672 1.584v6.833c0 .87-.748 1.583-1.67 1.583" fill="#E9823C"/><path d="M248.218 10h-6.662c-.922 0-1.667-.714-1.667-1.584V1.583c0-.874.748-1.582 1.667-1.582l6.66-.001c.923 0 1.672.709 1.672 1.584v6.833c0 .87-.747 1.583-1.67 1.583" fill="#E9833C"/><path d="M248.218 10h-6.662c-.921-.001-1.667-.714-1.667-1.584V1.583c0-.873.748-1.582 1.667-1.582l6.66-.001c.923 0 1.672.709 1.672 1.584v6.833c0 .869-.749 1.583-1.67 1.583" fill="#E9833D"/><path d="M248.217 10h-6.66c-.922-.001-1.668-.714-1.668-1.585V1.583c0-.874.748-1.582 1.668-1.582l6.66-.001c.922 0 1.67.708 1.67 1.585l.002 6.832c-.001.87-.75 1.583-1.672 1.583" fill="#E9843D"/><path d="M248.217 10h-6.661c-.921-.001-1.667-.714-1.667-1.584V1.583c0-.873.748-1.582 1.667-1.582l6.66-.001c.923 0 1.672.709 1.672 1.584v6.832c0 .87-.748 1.584-1.67 1.584" fill="#E9843E"/><path d="M248.217 10h-6.66c-.921-.001-1.668-.714-1.668-1.585V1.584c0-.874.748-1.583 1.668-1.583l6.66-.001c.922 0 1.671.709 1.671 1.585v6.831c0 .87-.748 1.584-1.67 1.584" fill="#E9843E"/><path d="M248.218 10h-6.662c-.921-.001-1.667-.714-1.667-1.585V1.584c0-.874.748-1.583 1.667-1.583l6.66-.001c.923 0 1.672.709 1.672 1.585v6.831c0 .87-.748 1.584-1.67 1.584" fill="#E9853F"/><path d="M248.217 10h-6.66c-.922 0-1.668-.714-1.668-1.585V1.584c0-.874.748-1.583 1.668-1.583L248.216 0c.923 0 1.672.71 1.672 1.585v6.831c0 .87-.749 1.584-1.671 1.584" fill="#E9853F"/><path d="M248.218 10h-6.661c-.921-.001-1.668-.714-1.668-1.585V1.584c0-.875.749-1.583 1.668-1.583l6.66-.001c.922 0 1.671.708 1.671 1.585v6.831c0 .87-.749 1.584-1.67 1.584" fill="#E98640"/><path d="M248.216 10h-6.66c-.921 0-1.667-.714-1.667-1.585v-6.83c0-.875.748-1.584 1.668-1.584L248.215 0c.923 0 1.673.71 1.673 1.586v6.83c0 .87-.749 1.584-1.672 1.584" fill="#E98641"/><path d="M248.217 10h-6.66c-.922-.001-1.668-.714-1.668-1.585v-6.83c0-.875.749-1.584 1.668-1.584L248.216 0c.923 0 1.672.708 1.672 1.585v6.83c0 .87-.748 1.585-1.67 1.585" fill="#EA8641"/><path d="M248.217 10h-6.661c-.92-.001-1.667-.714-1.667-1.585v-6.83c0-.875.748-1.584 1.667-1.584l6.66-.001c.922 0 1.672.709 1.672 1.586v6.83c0 .87-.748 1.584-1.671 1.584" fill="#EA8742"/><path d="M248.402 10h-5.92c-.819 0-1.482-.635-1.482-1.409V2.52c0-.778.665-1.408 1.483-1.408h5.918c.82 0 1.487.63 1.487 1.408v6.072c0 .773-.666 1.408-1.486 1.408" fill="#EA8742"/><path d="M248.402 10h-5.92c-.819-.001-1.482-.635-1.482-1.409V2.52c0-.778.665-1.408 1.483-1.408h5.919c.82 0 1.486.63 1.486 1.408v6.071c0 .774-.666 1.409-1.486 1.409" fill="#EA8843"/><path d="M248.403 10h-5.92c-.82-.001-1.483-.635-1.483-1.41V2.52c0-.777.666-1.408 1.483-1.408h5.919c.82 0 1.486.63 1.486 1.408v6.071c0 .774-.665 1.409-1.485 1.409" fill="#EA8844"/><path d="M248.403 10h-5.92c-.819 0-1.483-.634-1.483-1.409V2.52c0-.778.666-1.408 1.483-1.408h5.92c.82 0 1.485.63 1.485 1.409v6.07c0 .775-.665 1.409-1.485 1.409" fill="#EA8844"/><path d="M248.403 10h-5.92c-.82-.001-1.483-.635-1.483-1.41V2.52c0-.777.665-1.408 1.483-1.408h5.919c.82 0 1.486.63 1.486 1.409v6.07c0 .774-.665 1.409-1.485 1.409" fill="#EA8945"/><path d="M248.402 10h-5.92c-.818 0-1.482-.635-1.482-1.41V2.52c0-.778.666-1.408 1.483-1.408h5.918c.82 0 1.487.63 1.487 1.408v6.071c0 .774-.666 1.409-1.486 1.409" fill="#EA8945"/><path d="M248.402 10h-5.919c-.819 0-1.483-.635-1.483-1.41V2.52c0-.777.666-1.408 1.483-1.408h5.918c.82 0 1.487.63 1.487 1.409v6.07c0 .774-.665 1.409-1.486 1.409" fill="#EA8A46"/><path d="M248.402 10h-5.919c-.82-.001-1.483-.636-1.483-1.41V2.52c0-.778.665-1.408 1.483-1.408h5.918c.82 0 1.487.63 1.487 1.409v6.07c0 .773-.666 1.409-1.486 1.409" fill="#EA8A46"/><path d="M248.402 10h-5.92c-.818-.001-1.482-.636-1.482-1.41V2.52c0-.778.665-1.408 1.483-1.408h5.918c.82 0 1.487.63 1.487 1.409v6.07c0 .773-.666 1.409-1.486 1.409" fill="#EA8A47"/><path d="M248.403 10h-5.92c-.82 0-1.483-.635-1.483-1.41V2.52c0-.777.666-1.408 1.483-1.408h5.918c.82 0 1.487.63 1.487 1.409v6.07c0 .774-.666 1.409-1.485 1.409" fill="#EA8B48"/><path d="M248.402 10h-5.918c-.82-.001-1.484-.636-1.484-1.41V2.52c0-.777.666-1.408 1.484-1.408h5.917c.82 0 1.487.63 1.487 1.41V8.59c0 .773-.666 1.409-1.486 1.409" fill="#EA8B48"/><path d="M248.402 10h-5.918c-.82 0-1.484-.636-1.484-1.41V2.52c0-.778.666-1.408 1.484-1.408h5.917c.82 0 1.487.63 1.487 1.41V8.59c0 .773-.665 1.409-1.486 1.409" fill="#EB8C49"/><path d="M248.402 10h-5.918c-.82 0-1.484-.635-1.484-1.41V2.52c0-.777.666-1.408 1.484-1.408h5.917c.82 0 1.487.63 1.487 1.41v6.07c0 .773-.665 1.408-1.486 1.408" fill="#EB8C49"/><path d="M248.401 10h-5.918c-.82 0-1.483-.636-1.483-1.41V2.52c0-.777.666-1.408 1.483-1.408h5.918c.82 0 1.487.63 1.487 1.41V8.59c0 .773-.666 1.409-1.487 1.409" fill="#EB8C4A"/><path d="M248.402 10h-5.918c-.82-.001-1.484-.636-1.484-1.41V2.52c0-.778.666-1.408 1.484-1.408h5.917c.82 0 1.487.63 1.487 1.41V8.59c0 .774-.666 1.41-1.486 1.41" fill="#EB8D4A"/><path d="M248.401 10h-5.917c-.82-.001-1.484-.635-1.484-1.41V2.52c0-.777.666-1.408 1.484-1.408h5.917c.82 0 1.487.63 1.487 1.41V8.59c0 .774-.666 1.409-1.487 1.409" fill="#EB8D4B"/><path d="M248.401 10h-5.917c-.82-.001-1.484-.636-1.484-1.41V2.52c0-.778.666-1.408 1.484-1.408h5.917c.82 0 1.487.63 1.487 1.41V8.59c0 .774-.666 1.41-1.487 1.41" fill="#EB8E4C"/><path d="M248.401 10h-5.917c-.82 0-1.484-.636-1.484-1.41V2.52c0-.777.666-1.408 1.484-1.408h5.917c.82 0 1.487.63 1.487 1.41V8.59c0 .774-.666 1.41-1.487 1.41" fill="#EB8E4C"/><path d="M248.4 10h-5.916c-.82-.001-1.484-.636-1.484-1.41V2.52c0-.777.665-1.408 1.484-1.408h5.916c.82 0 1.488.63 1.488 1.41V8.59c0 .774-.666 1.41-1.487 1.41" fill="#EB8E4D"/><path d="M248.401 10h-5.917c-.82-.001-1.484-.636-1.484-1.41V2.52c0-.778.666-1.409 1.484-1.409h5.916c.82 0 1.488.63 1.488 1.41V8.59c0 .774-.666 1.41-1.487 1.41" fill="#EB8F4D"/><path d="M248.401 10h-5.917c-.82-.001-1.484-.636-1.484-1.41V2.52c0-.778.666-1.409 1.484-1.409h5.916c.821 0 1.488.63 1.488 1.41V8.59c0 .774-.666 1.41-1.487 1.41" fill="#EB8F4E"/><path d="M248.401 10h-5.917c-.82-.001-1.484-.636-1.484-1.411V2.52c0-.778.666-1.41 1.484-1.41h5.917c.82 0 1.487.63 1.487 1.411V8.59c0 .774-.666 1.41-1.487 1.41" fill="#EB904E"/><path d="M248.4 10h-5.916c-.82 0-1.484-.636-1.484-1.411V2.522c0-.779.666-1.41 1.484-1.41h5.916c.821 0 1.488.63 1.488 1.41V8.59c0 .774-.666 1.41-1.487 1.41" fill="#EB904F"/><path d="M248.4 10h-5.916c-.82 0-1.484-.635-1.484-1.411V2.52c0-.778.666-1.409 1.484-1.409h5.916c.82 0 1.488.63 1.488 1.41V8.59c0 .776-.666 1.411-1.487 1.411" fill="#EB914F"/><path d="M248.4 10h-5.916c-.82-.001-1.484-.636-1.484-1.411V2.52c0-.778.666-1.41 1.484-1.41h5.916c.82 0 1.488.63 1.488 1.412v6.066c0 .775-.666 1.411-1.488 1.411" fill="#EC9150"/><path d="M248.4 10h-5.915c-.82 0-1.485-.636-1.485-1.411V2.522c0-.779.666-1.41 1.485-1.41h5.915c.82 0 1.488.63 1.488 1.41V8.59c0 .774-.666 1.41-1.487 1.41" fill="#EC9150"/><path d="M248.4 10h-5.915c-.82 0-1.485-.635-1.485-1.411V2.522c0-.778.667-1.41 1.485-1.41h5.915c.82 0 1.488.63 1.488 1.41V8.59c0 .776-.667 1.411-1.488 1.411" fill="#EC9251"/><path d="M248.4 10h-5.915c-.821 0-1.485-.636-1.485-1.411V2.522c0-.779.666-1.41 1.485-1.41h5.915c.821 0 1.488.63 1.488 1.41V8.59c0 .775-.666 1.411-1.488 1.411" fill="#EC9252"/><path d="M248.4 10h-5.915c-.82 0-1.485-.636-1.485-1.411V2.522c0-.78.666-1.41 1.485-1.41h5.914c.82 0 1.489.63 1.489 1.41V8.59c0 .775-.667 1.411-1.488 1.411" fill="#EC9352"/><path d="M248.4 10h-5.915c-.82 0-1.485-.635-1.485-1.411V2.522c0-.778.667-1.41 1.485-1.41h5.914c.822 0 1.49.631 1.49 1.41V8.59c0 .775-.667 1.41-1.488 1.41" fill="#EC9353"/><path d="M248.4 10h-5.915c-.82 0-1.485-.636-1.485-1.412V2.522c0-.779.667-1.41 1.485-1.41h5.914c.822 0 1.489.63 1.489 1.41V8.59c0 .775-.666 1.411-1.487 1.411" fill="#EC9353"/><path d="M247.475 8.889H242.3c-.719-.001-1.3-.557-1.3-1.236V2.346c0-.682.583-1.234 1.3-1.234h5.174c.719 0 1.303.552 1.303 1.235v5.307c0 .678-.583 1.235-1.302 1.235" fill="#EC9454"/><path d="M247.475 8.889H242.3c-.718 0-1.3-.557-1.3-1.235V2.345c0-.681.583-1.233 1.3-1.233h5.174c.72 0 1.303.551 1.303 1.234v5.309c0 .677-.583 1.234-1.302 1.234" fill="#EC9454"/><path d="M247.475 8.889H242.3c-.718 0-1.3-.557-1.3-1.236V2.346c0-.681.583-1.234 1.3-1.234h5.174c.719 0 1.303.552 1.303 1.235v5.307c0 .678-.583 1.235-1.302 1.235" fill="#EC9555"/><path d="M247.475 8.889H242.3c-.717 0-1.299-.557-1.299-1.236V2.346c0-.681.583-1.234 1.3-1.234h5.175c.718 0 1.302.552 1.302 1.235v5.307c0 .678-.583 1.235-1.302 1.235" fill="#EC9556"/><path d="M247.475 8.889H242.3c-.718-.001-1.3-.557-1.3-1.236V2.346c0-.682.584-1.234 1.3-1.234h5.174c.72 0 1.303.552 1.303 1.235v5.307c0 .678-.583 1.235-1.302 1.235" fill="#ED9556"/><path d="M247.475 8.889H242.3c-.718 0-1.3-.557-1.3-1.236V2.346c0-.681.583-1.234 1.3-1.234h5.174c.72 0 1.303.552 1.303 1.235v5.307c0 .678-.583 1.235-1.302 1.235" fill="#ED9657"/><path d="M247.474 8.889H242.3c-.718-.001-1.3-.557-1.3-1.236V2.346c0-.682.583-1.234 1.3-1.234h5.173c.72 0 1.304.552 1.304 1.235v5.306c0 .679-.584 1.236-1.303 1.236" fill="#ED9657"/><path d="M247.474 8.889H242.3c-.718 0-1.3-.557-1.3-1.236V2.346c0-.681.584-1.234 1.3-1.234h5.174c.719 0 1.303.552 1.303 1.235v5.307c0 .678-.583 1.235-1.303 1.235" fill="#ED9758"/><path d="M247.475 8.889H242.3c-.718-.001-1.3-.557-1.3-1.237V2.347c0-.682.584-1.235 1.3-1.235h5.174c.72 0 1.303.552 1.303 1.235v5.306c0 .679-.583 1.236-1.302 1.236" fill="#ED9758"/><path d="M247.474 8.889H242.3c-.718 0-1.3-.557-1.3-1.236V2.347c0-.682.584-1.235 1.3-1.235h5.174c.719 0 1.303.552 1.303 1.236v5.305c0 .679-.584 1.236-1.303 1.236" fill="#ED9759"/><path d="M247.474 8.889H242.3c-.718 0-1.3-.557-1.3-1.236V2.347c0-.682.583-1.235 1.3-1.235h5.173c.72 0 1.304.552 1.304 1.235v5.307c0 .678-.584 1.235-1.303 1.235" fill="#ED985A"/><path d="M247.474 8.889H242.3c-.718 0-1.3-.557-1.3-1.236V2.347c0-.682.584-1.235 1.3-1.235h5.174c.72 0 1.303.552 1.303 1.236v5.305c0 .68-.583 1.236-1.303 1.236" fill="#ED985A"/><path d="M247.474 8.889H242.3c-.718 0-1.3-.557-1.3-1.236V2.347c0-.682.584-1.235 1.3-1.235h5.173c.72 0 1.304.552 1.304 1.236v5.305c0 .679-.584 1.236-1.303 1.236" fill="#ED995B"/><path d="M247.474 8.889H242.3c-.718 0-1.301-.557-1.301-1.236V2.346c0-.681.584-1.234 1.301-1.234h5.172c.72 0 1.304.552 1.304 1.235v5.306c0 .679-.584 1.236-1.303 1.236" fill="#ED995B"/><path d="M247.474 8.889H242.3c-.718-.001-1.3-.557-1.3-1.237V2.347c0-.682.584-1.235 1.3-1.235h5.173c.72 0 1.304.553 1.304 1.236v5.305c0 .679-.584 1.236-1.303 1.236" fill="#ED995C"/><path d="M247.473 8.889h-5.172c-.72 0-1.301-.557-1.301-1.237V2.347c0-.682.583-1.235 1.3-1.235h5.173c.72 0 1.304.552 1.304 1.236v5.305c0 .679-.584 1.236-1.304 1.236" fill="#ED9A5D"/><path d="M247.474 8.889H242.3c-.718 0-1.301-.557-1.301-1.237V2.347c0-.682.584-1.235 1.301-1.235h5.172c.72 0 1.304.552 1.304 1.236v5.305c0 .679-.584 1.236-1.303 1.236" fill="#ED9A5D"/><path d="M247.474 8.889h-5.172c-.72 0-1.302-.557-1.302-1.237V2.348c0-.682.584-1.236 1.302-1.236h5.171c.72 0 1.304.552 1.304 1.236v5.305c0 .679-.583 1.236-1.303 1.236" fill="#ED9B5E"/><path d="M247.473 8.889h-5.172c-.718 0-1.301-.558-1.301-1.237V2.347c0-.682.584-1.235 1.3-1.235h5.172c.72 0 1.305.552 1.305 1.236v5.304c0 .68-.584 1.237-1.304 1.237" fill="#EE9B5E"/><path d="M247.473 8.889H242.3c-.719 0-1.301-.557-1.301-1.238V2.348c0-.682.584-1.236 1.3-1.236h5.172c.72 0 1.305.553 1.305 1.237v5.304c0 .679-.584 1.236-1.304 1.236" fill="#EE9C5F"/><path d="M247.473 8.889H242.3c-.719 0-1.301-.557-1.301-1.237V2.348c0-.683.584-1.236 1.301-1.236h5.171c.72 0 1.305.552 1.305 1.236v5.304c0 .68-.584 1.237-1.304 1.237" fill="#EE9C60"/><path d="M247.473 8.889h-5.172c-.719 0-1.301-.558-1.301-1.237V2.348c0-.683.584-1.236 1.301-1.236h5.171c.72 0 1.305.553 1.305 1.237v5.303c0 .68-.584 1.237-1.304 1.237" fill="#EE9C60"/><path d="M247.473 8.889H242.3c-.717-.001-1.3-.559-1.3-1.239V2.347c0-.682.585-1.235 1.301-1.235h5.172c.72 0 1.304.552 1.304 1.237v5.303c0 .68-.584 1.237-1.304 1.237" fill="#EE9D61"/><path d="M247.473 8.889H242.3c-.719 0-1.301-.558-1.301-1.238V2.348c0-.683.584-1.236 1.301-1.236h5.171c.72 0 1.305.553 1.305 1.237v5.303c0 .68-.584 1.237-1.304 1.237" fill="#EE9D61"/><path d="M247.473 8.889h-5.172C241.582 8.888 241 8.33 241 7.65V2.348c0-.683.584-1.236 1.301-1.236h5.171c.72 0 1.305.553 1.305 1.237v5.303c0 .679-.584 1.237-1.304 1.237" fill="#EE9E62"/><path d="M247.473 8.889h-5.171C241.582 8.888 241 8.33 241 7.65V2.349c0-.683.584-1.237 1.302-1.237h5.17c.72 0 1.305.553 1.305 1.237v5.303c0 .679-.584 1.237-1.304 1.237" fill="#EE9E63"/><path d="M247.473 8.889h-5.17c-.72 0-1.303-.558-1.303-1.238V2.348c0-.683.585-1.236 1.302-1.236h5.17c.721 0 1.305.553 1.305 1.237v5.303c0 .679-.583 1.237-1.304 1.237" fill="#EE9E63"/><path d="M247.472 8.889h-5.17c-.72 0-1.302-.558-1.302-1.238V2.348c0-.683.584-1.236 1.302-1.236h5.17c.72 0 1.305.553 1.305 1.236v5.304c0 .679-.585 1.237-1.305 1.237" fill="#EE9F64"/><path d="M247.472 8.889h-5.17c-.72 0-1.302-.557-1.302-1.238V2.349c0-.683.584-1.237 1.302-1.237h5.17c.72 0 1.305.553 1.305 1.238v5.302c0 .68-.584 1.237-1.305 1.237" fill="#EE9F64"/><path d="M247.472 8.889h-5.17c-.72 0-1.302-.558-1.302-1.238V2.348c0-.683.585-1.236 1.302-1.236h5.17c.72 0 1.305.552 1.305 1.237V7.65c0 .68-.584 1.238-1.305 1.238" fill="#EEA065"/><path d="M247.472 8.889h-5.17C241.582 8.888 241 8.33 241 7.65v-5.3c0-.683.585-1.237 1.302-1.237h5.17c.72 0 1.305.553 1.305 1.238V7.65c0 .68-.584 1.238-1.305 1.238" fill="#EEA065"/><path d="M247.472 8.889h-5.17c-.719 0-1.302-.478-1.302-1.062V3.283c0-.586.585-1.06 1.302-1.06h5.17c.72 0 1.305.474 1.305 1.06v4.545c0 .583-.584 1.06-1.305 1.06" fill="#EEA066"/><path d="M247.659 8.889h-4.431c-.617 0-1.117-.478-1.117-1.062V3.283c0-.586.502-1.06 1.117-1.06h4.43c.617 0 1.119.474 1.119 1.06v4.545c0 .583-.5 1.06-1.118 1.06" fill="#EEA167"/><path d="M247.658 8.889h-4.43c-.618 0-1.117-.478-1.117-1.062V3.284c0-.586.501-1.06 1.116-1.06l4.43-.002c.618 0 1.12.475 1.12 1.062v4.544c0 .583-.501 1.06-1.119 1.06" fill="#EFA167"/><path d="M247.658 8.889h-4.43c-.617 0-1.117-.478-1.117-1.062V3.284c0-.586.501-1.061 1.117-1.061h4.43c.618 0 1.12.474 1.12 1.062v4.543c0 .583-.502 1.06-1.12 1.06" fill="#EFA268"/><path d="M247.658 8.889h-4.43c-.617 0-1.117-.479-1.117-1.063V3.283c0-.586.501-1.06 1.117-1.06h4.43c.617 0 1.119.474 1.119 1.061v4.543c0 .583-.501 1.062-1.119 1.062" fill="#EFA268"/><path d="M247.659 8.889h-4.43c-.618 0-1.118-.479-1.118-1.062V3.284c0-.586.501-1.061 1.117-1.061h4.43c.618 0 1.12.474 1.12 1.061v4.543c0 .583-.502 1.062-1.12 1.062" fill="#EFA369"/><path d="M247.658 8.889h-4.43c-.617 0-1.117-.479-1.117-1.062V3.284c0-.586.5-1.06 1.117-1.06l4.429-.002c.618 0 1.12.475 1.12 1.062v4.543c0 .583-.5 1.062-1.119 1.062" fill="#EFA36A"/><path d="M247.658 8.889h-4.43c-.617-.001-1.117-.48-1.117-1.063V3.284c0-.586.501-1.061 1.117-1.061h4.43c.617 0 1.119.474 1.119 1.061v4.543c0 .583-.501 1.062-1.12 1.062" fill="#EFA36A"/><path d="M247.658 8.889h-4.43c-.617-.001-1.117-.479-1.117-1.062V3.284c0-.586.501-1.061 1.117-1.061h4.43c.617 0 1.12.474 1.12 1.062v4.542c0 .583-.502 1.062-1.12 1.062" fill="#EFA46B"/><path d="M247.658 8.889h-4.43c-.616 0-1.117-.479-1.117-1.063V3.284c0-.586.502-1.061 1.117-1.061h4.429c.618 0 1.12.474 1.12 1.062v4.542c0 .583-.501 1.062-1.12 1.062" fill="#EFA46B"/><path d="M247.657 8.889h-4.429c-.617-.001-1.117-.48-1.117-1.063V3.284c0-.586.502-1.061 1.117-1.061h4.429c.618 0 1.12.475 1.12 1.062v4.542c0 .583-.502 1.062-1.12 1.062" fill="#EFA56C"/><path d="M247.657 8.889h-4.429c-.617-.001-1.117-.479-1.117-1.063V3.284c0-.586.501-1.06 1.117-1.06l4.429-.002c.618 0 1.12.475 1.12 1.063v4.542c0 .583-.502 1.062-1.12 1.062" fill="#EFA56D"/><path d="M247.657 8.889h-4.428c-.617 0-1.118-.479-1.118-1.063V3.284c0-.586.501-1.061 1.118-1.061h4.427c.619 0 1.12.474 1.12 1.062l.002 4.542c-.001.583-.502 1.062-1.12 1.062" fill="#EFA56D"/><path d="M247.657 8.889h-4.429c-.617 0-1.117-.48-1.117-1.063V3.284c0-.586.501-1.061 1.117-1.061h4.429c.618 0 1.12.475 1.12 1.062v4.541c0 .584-.502 1.063-1.12 1.063" fill="#EFA66E"/><path d="M247.657 8.889h-4.428c-.617 0-1.118-.48-1.118-1.063V3.284c0-.586.502-1.061 1.118-1.061h4.427c.619 0 1.121.474 1.121 1.062v4.541c0 .584-.502 1.063-1.12 1.063" fill="#EFA66E"/><path d="M247.657 8.889h-4.429c-.617 0-1.117-.479-1.117-1.063V3.285c0-.586.501-1.062 1.117-1.062h4.428c.619 0 1.121.475 1.121 1.063v4.54c0 .584-.501 1.063-1.12 1.063" fill="#F0A76F"/><path d="M247.656 8.889h-4.427c-.617-.001-1.118-.48-1.118-1.064v-4.54c0-.586.502-1.062 1.118-1.062h4.427c.619 0 1.121.475 1.121 1.063v4.54c0 .584-.502 1.063-1.12 1.063" fill="#F0A76F"/><path d="M247.656 8.889h-4.427c-.617 0-1.118-.48-1.118-1.064v-4.54c0-.587.502-1.062 1.118-1.062h4.427c.619 0 1.12.474 1.12 1.063l.002 4.54c-.001.584-.503 1.063-1.122 1.063" fill="#F0A870"/><path d="M247.658 8.889h-4.429c-.617 0-1.118-.48-1.118-1.064v-4.54c0-.586.502-1.062 1.118-1.062h4.427c.62 0 1.121.475 1.121 1.063v4.54c0 .584-.501 1.063-1.12 1.063" fill="#F0A871"/><path d="M247.657 8.889h-4.428c-.618 0-1.118-.48-1.118-1.063v-4.54c0-.587.502-1.063 1.118-1.063h4.427c.618 0 1.12.475 1.12 1.063l.002 4.54c-.001.584-.503 1.063-1.121 1.063" fill="#F0A971"/><path d="M247.656 8.889h-4.427c-.618 0-1.118-.48-1.118-1.064v-4.54c0-.587.502-1.062 1.118-1.062h4.427c.619 0 1.121.475 1.121 1.063v4.54c0 .583-.502 1.063-1.12 1.063" fill="#F0A972"/><path d="M247.657 8.889h-4.428c-.617 0-1.118-.479-1.118-1.064v-4.54c0-.586.501-1.062 1.118-1.062h4.426c.62 0 1.122.475 1.122 1.063v4.54c0 .584-.502 1.063-1.12 1.063" fill="#F0AA72"/><path d="M247.657 8.889h-4.427c-.618 0-1.119-.48-1.119-1.065V3.286c0-.587.502-1.064 1.119-1.064h4.426c.618 0 1.121.475 1.121 1.064v4.539c0 .584-.502 1.064-1.12 1.064" fill="#F0AA73"/><path d="M247.656 8.889h-4.427c-.617 0-1.118-.48-1.118-1.064v-4.54c0-.586.502-1.062 1.118-1.062h4.426c.62 0 1.122.475 1.122 1.063v4.54c0 .584-.502 1.063-1.121 1.063" fill="#F1AB74"/><path d="M247.656 8.889h-4.426c-.617-.001-1.119-.48-1.119-1.064v-4.54c0-.586.502-1.062 1.12-1.062h4.424c.62 0 1.122.476 1.122 1.063v4.54c0 .583-.502 1.063-1.12 1.063" fill="#F1AB74"/><path d="M247.656 8.889h-4.427c-.617 0-1.118-.48-1.118-1.065V3.286c0-.588.502-1.063 1.118-1.063h4.426c.619 0 1.122.475 1.122 1.064v4.538c0 .584-.503 1.064-1.121 1.064" fill="#F1AC75"/><path d="M247.656 8.889h-4.426c-.618 0-1.119-.48-1.119-1.064V3.286c0-.587.502-1.063 1.119-1.063h4.425c.62 0 1.122.476 1.122 1.064v4.538c0 .585-.501 1.064-1.121 1.064" fill="#F1AC75"/><path d="M247.656 8.889h-4.426c-.617-.001-1.119-.48-1.119-1.066V3.286c0-.587.502-1.063 1.12-1.063h4.424c.619 0 1.122.476 1.122 1.064v4.538c0 .584-.502 1.064-1.121 1.064" fill="#F1AD76"/><path d="M247.656 8.889h-4.425c-.618 0-1.12-.48-1.12-1.065V3.286c0-.588.503-1.063 1.12-1.063h4.424c.619 0 1.122.475 1.122 1.064v4.538c0 .584-.502 1.064-1.121 1.064" fill="#F1AD77"/><path d="M247.655 8.889h-4.425c-.618 0-1.119-.48-1.119-1.066V3.286c0-.587.502-1.063 1.12-1.063h4.423c.62 0 1.123.475 1.123 1.064v4.537c0 .585-.502 1.065-1.122 1.065" fill="#F1AE77"/><path d="M247.655 8.889h-4.424c-.619 0-1.12-.48-1.12-1.065V3.287c0-.588.502-1.064 1.12-1.064h4.423c.62 0 1.123.475 1.123 1.064v4.537c0 .585-.502 1.065-1.122 1.065" fill="#F1AE78"/><path d="M247.655 8.889h-4.424c-.619 0-1.12-.48-1.12-1.065V3.287c0-.587.503-1.064 1.12-1.064h4.424c.619 0 1.122.476 1.122 1.065v4.536c0 .585-.503 1.065-1.122 1.065" fill="#F1AF78"/><path d="M246.73 7.778h-3.686c-.515 0-.933-.4-.933-.888V3.11c0-.49.419-.887.933-.887h3.686c.517 0 .936.396.936.887v3.78c0 .488-.419.888-.935.888" fill="#F1AF79"/><path d="M246.73 7.778h-3.685c-.516 0-.934-.4-.934-.888V3.11c0-.49.419-.887.934-.887h3.685c.517 0 .936.396.936.887v3.78c0 .487-.418.888-.935.888" fill="#F1B07A"/><path d="M246.73 7.778h-3.686c-.515 0-.933-.4-.933-.888V3.11c0-.49.419-.887.933-.887h3.686c.517 0 .936.396.936.887v3.78c0 .487-.419.888-.935.888" fill="#F2B07A"/><path d="M246.73 7.778h-3.685c-.516 0-.934-.4-.934-.888V3.11c0-.49.42-.887.934-.887h3.685c.517 0 .936.397.936.888v3.78c0 .487-.418.887-.935.887" fill="#F2B17B"/><path d="M246.73 7.778h-3.685c-.515 0-.934-.4-.934-.889v-3.78c0-.49.42-.886.934-.886h3.685c.517 0 .936.396.936.887v3.78c0 .487-.419.888-.936.888" fill="#F2B17B"/><path d="M246.73 7.778h-3.685c-.516 0-.934-.4-.934-.888V3.11c0-.49.419-.887.934-.887h3.684c.517 0 .937.396.937.888v3.78c0 .487-.42.887-.936.887" fill="#F2B27C"/><path d="M246.73 7.778h-3.685c-.516 0-.934-.4-.934-.889V3.11c0-.49.419-.887.934-.887h3.685c.517 0 .936.397.936.888V6.89c0 .488-.419.888-.936.888" fill="#F2B27D"/><path d="M246.73 7.778h-3.685c-.516 0-.934-.4-.934-.89V3.112c0-.49.419-.888.934-.888h3.684c.518 0 .937.397.937.888V6.89c0 .489-.419.889-.936.889" fill="#F2B37D"/><path d="M246.73 7.778h-3.685c-.516 0-.934-.4-.934-.889V3.111c0-.49.42-.888.934-.888h3.685c.516 0 .936.397.936.888V6.89c0 .487-.42.888-.936.888" fill="#F2B37E"/><path d="M246.73 7.778h-3.684c-.517-.001-.935-.401-.935-.89V3.11c0-.49.42-.887.935-.887h3.683c.517 0 .937.397.937.888v3.778c0 .488-.42.889-.936.889" fill="#F2B37F"/><path d="M246.73 7.778h-3.684c-.517 0-.935-.4-.935-.89V3.112c0-.49.42-.888.935-.888h3.683c.517 0 .937.397.937.889V6.89c0 .488-.419.889-.937.889" fill="#F2B47F"/><path d="M246.73 7.778h-3.685c-.516 0-.934-.4-.934-.89V3.112c0-.49.42-.888.934-.888h3.685c.516 0 .937.397.937.888V6.89c0 .488-.42.889-.937.889" fill="#F2B480"/><path d="M246.73 7.778h-3.685c-.516 0-.934-.4-.934-.89V3.111c0-.49.42-.888.934-.888h3.684c.517 0 .937.397.937.889v3.777c0 .488-.42.889-.937.889" fill="#F2B580"/><path d="M246.73 7.778h-3.684c-.516 0-.935-.401-.935-.89V3.11c0-.49.42-.888.935-.888h3.683c.518 0 .937.397.937.889v3.776c0 .489-.419.89-.936.89" fill="#F2B581"/><path d="M246.73 7.778h-3.684c-.516 0-.935-.4-.935-.89V3.112c0-.491.42-.89.935-.89h3.683c.517 0 .937.398.937.89v3.777c0 .488-.42.889-.937.889" fill="#F2B682"/><path d="M246.73 7.778h-3.683c-.517 0-.936-.401-.936-.89V3.112c0-.491.42-.89.936-.89h3.682c.517 0 .937.398.937.89v3.776c0 .489-.42.89-.937.89" fill="#F3B682"/><path d="M246.729 7.778h-3.683c-.517 0-.935-.4-.935-.89V3.111c0-.49.419-.888.935-.888h3.682c.519 0 .938.397.938.889v3.777c0 .488-.419.889-.937.889" fill="#F3B783"/><path d="M246.729 7.778h-3.682c-.517 0-.936-.401-.936-.89V3.111c0-.492.42-.89.936-.89h3.682c.517 0 .937.398.937.89v3.776c0 .489-.42.89-.937.89" fill="#F3B784"/><path d="M246.728 7.778h-3.681c-.517 0-.936-.401-.936-.89V3.112c0-.49.42-.89.936-.89h3.68c.519 0 .94.399.94.891v3.775c0 .489-.42.89-.939.89" fill="#F3B784"/><path d="M246.728 7.778h-3.682c-.516 0-.935-.401-.935-.89V3.111c0-.491.42-.89.935-.89h3.682c.518 0 .938.398.938.89v3.776c0 .489-.42.89-.938.89" fill="#F3B885"/><path d="M246.728 7.778h-3.681c-.517 0-.936-.401-.936-.891V3.112c0-.491.42-.89.936-.89h3.68c.519 0 .94.398.94.89v3.776c0 .489-.42.89-.939.89" fill="#F3B886"/><path d="M246.729 7.778h-3.683c-.516 0-.935-.402-.935-.891V3.112c0-.491.42-.89.935-.89h3.682c.518 0 .938.398.938.89v3.775c0 .49-.42.89-.937.89" fill="#F3B986"/><path d="M246.728 7.778h-3.68c-.518 0-.937-.402-.937-.89V3.111c0-.491.42-.89.936-.89h3.68c.519 0 .94.398.94.89v3.776c0 .488-.42.89-.939.89" fill="#F3B987"/><path d="M246.728 7.778h-3.682c-.516 0-.935-.401-.935-.891V3.113c0-.492.42-.89.935-.89h3.681c.518 0 .94.397.94.89v3.774c0 .49-.421.89-.94.89" fill="#F3BA88"/><path d="M246.727 7.778h-3.68c-.516 0-.936-.402-.936-.891V3.113c0-.492.42-.89.937-.89h3.679c.518 0 .94.398.94.89v3.774c0 .49-.421.89-.94.89" fill="#F4BA88"/><path d="M246.728 7.778h-3.681c-.517 0-.936-.402-.936-.891V3.113c0-.492.42-.89.936-.89h3.68c.518 0 .94.398.94.89v3.774c0 .49-.421.89-.94.89" fill="#F4BB89"/><path d="M246.727 7.778h-3.68c-.516 0-.936-.401-.936-.892V3.113c0-.491.42-.89.937-.89h3.679c.518 0 .94.398.94.89v3.774c0 .49-.422.89-.94.89" fill="#F4BB8A"/><path d="M246.728 7.778h-3.68c-.517 0-.937-.402-.937-.892V3.113c0-.492.42-.89.937-.89h3.68c.517 0 .939.398.939.891v3.773c0 .49-.421.89-.94.89" fill="#F4BC8A"/><path d="M246.727 7.778h-3.679c-.518 0-.937-.402-.937-.892V3.114c0-.492.42-.891.937-.891h3.679c.518 0 .94.398.94.891v3.772c0 .49-.42.892-.94.892" fill="#F4BC8B"/><path d="M246.727 7.778h-3.679c-.517 0-.937-.402-.937-.893V3.114c0-.492.421-.891.937-.891h3.679c.519 0 .94.398.94.891v3.772c0 .49-.421.892-.94.892" fill="#F4BD8B"/><path d="M246.727 7.778h-3.679c-.518 0-.937-.402-.937-.892V3.114c0-.492.42-.891.937-.891h3.678c.519 0 .94.398.94.892v3.771c0 .49-.42.892-.94.892" fill="#F4BD8C"/><path d="M246.915 7.778h-2.943c-.414 0-.75-.322-.75-.714V4.047c0-.394.337-.713.75-.713h2.942c.415 0 .752.319.752.713v3.017c0 .392-.336.714-.751.714" fill="#F4BE8D"/><path d="M246.914 7.778h-2.942c-.414 0-.75-.322-.75-.714V4.047c0-.394.337-.713.75-.713h2.942c.415 0 .752.319.752.713v3.017c0 .392-.337.714-.752.714" fill="#F4BE8E"/><path d="M246.914 7.778h-2.942c-.414 0-.75-.322-.75-.714V4.047c0-.394.337-.713.75-.713h2.942c.415 0 .752.319.752.714v3.016c0 .392-.337.714-.752.714" fill="#F4BE8E"/><path d="M246.915 7.778h-2.943c-.414 0-.75-.322-.75-.715V4.047c0-.393.336-.713.75-.713h2.942c.416 0 .753.319.753.714v3.016c0 .392-.337.714-.752.714" fill="#F5BF8F"/><path d="M246.914 7.778h-2.942c-.414 0-.75-.322-.75-.714V4.047c0-.394.337-.713.75-.713h2.942c.415 0 .752.319.752.714v3.016c0 .392-.337.714-.752.714" fill="#F5BF8F"/><path d="M246.914 7.778h-2.941c-.415 0-.75-.322-.75-.715V4.047c0-.394.336-.714.75-.714h2.94c.416 0 .753.32.753.715v3.015c0 .393-.336.715-.752.715" fill="#F5C090"/><path d="M246.914 7.778h-2.941c-.415 0-.75-.322-.75-.715V4.048c0-.395.336-.714.75-.714h2.94c.416 0 .753.319.753.714v3.016c0 .392-.336.714-.752.714" fill="#F5C091"/><path d="M246.914 7.778h-2.941c-.414 0-.75-.322-.75-.715V4.047c0-.394.336-.714.75-.714h2.94c.416 0 .753.32.753.715v3.015c0 .393-.336.715-.752.715" fill="#F5C192"/><path d="M246.914 7.778h-2.94c-.416 0-.752-.322-.752-.715V4.048c0-.395.337-.714.751-.714h2.94c.416 0 .753.319.753.715v3.014c0 .393-.337.715-.752.715" fill="#F5C192"/><path d="M246.914 7.778h-2.941c-.415 0-.75-.323-.75-.716V4.048c0-.395.336-.715.75-.715h2.94c.416 0 .754.32.754.715v3.015c0 .392-.337.715-.753.715" fill="#F5C293"/><path d="M246.913 7.778h-2.94c-.414 0-.75-.322-.75-.715V4.048c0-.395.337-.714.75-.714h2.94c.416 0 .753.32.753.714v3.015c0 .393-.337.715-.753.715" fill="#F5C294"/><path d="M246.913 7.778h-2.94c-.414 0-.75-.323-.75-.716V4.05c0-.395.336-.715.75-.715h2.94c.416 0 .753.32.753.715v3.014c0 .392-.337.715-.753.715" fill="#F6C394"/><path d="M246.913 7.778h-2.94c-.415 0-.75-.323-.75-.716V4.048c0-.394.336-.714.75-.714h2.94c.416 0 .753.32.753.715v3.014c0 .392-.337.715-.753.715" fill="#F6C395"/><path d="M246.913 7.778h-2.94c-.414 0-.75-.323-.75-.716V4.049c0-.395.337-.715.75-.715h2.94c.415 0 .753.32.753.716v3.012c0 .393-.337.716-.753.716" fill="#F6C496"/><path d="M246.913 7.778h-2.94c-.415 0-.75-.322-.75-.716V4.05c0-.395.337-.715.75-.715h2.939c.416 0 .754.32.754.715v3.013c0 .394-.337.716-.753.716" fill="#F6C496"/><path d="M246.913 7.778h-2.939c-.415 0-.752-.323-.752-.717V4.05c0-.396.338-.716.752-.716h2.938c.416 0 .754.32.754.716v3.012c0 .393-.338.716-.753.716" fill="#F6C597"/><path d="M246.912 7.778h-2.938c-.415 0-.752-.323-.752-.716V4.049c0-.395.338-.715.752-.715h2.938c.417 0 .755.32.755.715v3.013c0 .393-.338.716-.755.716" fill="#F6C598"/><path d="M246.912 7.778h-2.938c-.415 0-.752-.322-.752-.717V4.05c0-.396.338-.716.752-.716h2.938c.417 0 .754.32.754.716v3.012c0 .394-.337.716-.754.716" fill="#F6C598"/><path d="M246.912 7.778h-2.937c-.416 0-.753-.323-.753-.717V4.05c0-.395.338-.716.753-.716h2.936c.417 0 .756.32.756.717v3.012c0 .393-.339.716-.755.716" fill="#F6C699"/><path d="M246.912 7.778h-2.937c-.416 0-.753-.323-.753-.717V4.05c0-.396.339-.717.753-.717h2.936c.417 0 .755.32.755.716V7.06c0 .394-.338.717-.754.717" fill="#F6C69A"/><path d="M246.911 7.778h-2.936c-.415 0-.753-.323-.753-.717V4.05c0-.395.338-.716.753-.716h2.936c.417 0 .755.32.755.717v3.01c0 .394-.338.717-.755.717" fill="#F7C79B"/><path d="M246.912 7.778h-2.937c-.416 0-.753-.324-.753-.718V4.05c0-.396.338-.717.753-.717h2.936c.417 0 .755.32.755.717v3.01c0 .394-.338.718-.754.718" fill="#F7C79B"/><path d="M246.91 7.778h-2.935c-.415 0-.753-.323-.753-.718V4.05c0-.395.338-.717.753-.717h2.936c.416 0 .755.321.755.718v3.01c0 .394-.338.717-.755.717" fill="#F7C89C"/><path d="M246.911 7.778h-2.936c-.416 0-.753-.324-.753-.718V4.05c0-.395.338-.716.753-.716h2.935c.418 0 .757.32.757.717v3.01c0 .393-.339.717-.756.717" fill="#F7C89D"/><path d="M246.91 7.778h-2.934c-.417 0-.754-.324-.754-.718V4.05c0-.395.338-.716.754-.716h2.934c.417 0 .757.32.757.717V7.06c0 .394-.34.718-.756.718" fill="#F7C89D"/><path d="M246.911 7.778h-2.935c-.416 0-.754-.324-.754-.718V4.05c0-.396.339-.717.754-.717h2.935c.417 0 .755.32.755.718V7.06c0 .394-.337.718-.755.718" fill="#F7C99E"/><path d="M246.91 7.778h-2.935c-.416 0-.753-.324-.753-.719V4.051c0-.396.338-.717.753-.717h2.935c.417 0 .756.32.756.718V7.06c0 .394-.338.718-.756.718" fill="#F7C99F"/><path d="M246.91 7.778h-2.934c-.416 0-.754-.324-.754-.719V4.052c0-.397.338-.718.754-.718h2.934c.417 0 .756.321.756.719v3.006c0 .395-.339.719-.756.719" fill="#F7CAA0"/><path d="M246.91 7.778h-2.934c-.416 0-.754-.324-.754-.72V4.053c0-.397.339-.718.754-.718h2.933c.418 0 .757.32.757.718V7.06c0 .395-.339.719-.756.719" fill="#F7CAA0"/><path d="M246.91 7.778h-2.933c-.417 0-.755-.325-.755-.72V4.053c0-.397.339-.718.755-.718h2.933c.417 0 .757.32.757.719V7.06c0 .394-.339.719-.757.719" fill="#F7CBA1"/><path d="M246.91 7.778h-2.933c-.417 0-.755-.324-.755-.72V4.053c0-.397.339-.718.755-.718h2.933c.417 0 .757.321.757.718V7.06c0 .395-.34.719-.757.719" fill="#F7CBA2"/><path d="M245.988 6.667h-2.2a.554.554 0 01-.566-.54V3.873c0-.298.254-.54.566-.54h2.2c.313 0 .568.242.568.54v2.255c0 .296-.255.539-.568.539" fill="#F7CBA3"/><path d="M245.988 6.667h-2.2a.555.555 0 01-.566-.54V3.873c0-.298.255-.54.567-.54h2.198c.314 0 .568.241.568.54v2.254c0 .297-.254.54-.567.54" fill="#F7CCA3"/><path d="M245.987 6.667h-2.198a.554.554 0 01-.567-.54V3.873c0-.298.255-.54.567-.54h2.198c.313 0 .568.242.568.54v2.254c0 .297-.254.54-.568.54" fill="#F7CCA4"/><path d="M245.988 6.667h-2.199a.556.556 0 01-.567-.54V3.872c0-.298.255-.54.567-.54h2.198c.314 0 .568.242.568.54v2.254c0 .296-.254.54-.567.54" fill="#F7CDA5"/><path d="M245.987 6.667h-2.198a.555.555 0 01-.567-.54V3.873c0-.298.255-.54.567-.54h2.198c.314 0 .568.241.568.54v2.254c0 .297-.254.54-.568.54" fill="#F8CDA5"/><path d="M245.987 6.667h-2.198a.555.555 0 01-.567-.541V3.874c0-.299.255-.54.567-.54h2.197c.314 0 .57.24.57.54v2.252c0 .297-.256.54-.57.54" fill="#F8CEA6"/><path d="M245.987 6.667h-2.198a.556.556 0 01-.567-.541V3.874c0-.298.255-.54.567-.54h2.197c.314 0 .57.242.57.54v2.252c0 .297-.255.54-.57.54" fill="#F8CEA7"/><path d="M245.987 6.667h-2.198a.556.556 0 01-.567-.541V3.874c0-.298.255-.54.567-.54h2.197c.314 0 .57.241.57.54v2.252c0 .297-.256.54-.57.54" fill="#F8CEA8"/><path d="M245.987 6.667h-2.197a.557.557 0 01-.568-.541V3.874c0-.299.255-.54.568-.54h2.196c.314 0 .569.24.569.54v2.252a.557.557 0 01-.569.54" fill="#F8CFA8"/><path d="M245.986 6.667h-2.197a.556.556 0 01-.567-.542v-2.25c0-.3.255-.542.567-.542h2.197c.314 0 .569.242.569.542v2.25a.557.557 0 01-.569.542" fill="#F8CFA9"/><path d="M245.985 6.667h-2.195a.556.556 0 01-.568-.542v-2.25c0-.3.255-.542.568-.542h2.195c.315 0 .57.242.57.542v2.25a.558.558 0 01-.57.542" fill="#F8D0AA"/><path d="M245.985 6.667h-2.195a.557.557 0 01-.568-.542v-2.25c0-.299.255-.542.568-.542h2.195c.314 0 .57.242.57.542v2.25a.558.558 0 01-.57.542" fill="#F8D0AB"/><path d="M245.985 6.667h-2.194a.556.556 0 01-.569-.542v-2.25c0-.3.256-.541.569-.541h2.194c.315 0 .57.242.57.542v2.25a.558.558 0 01-.57.54" fill="#F8D1AB"/><path d="M245.986 6.667h-2.195a.557.557 0 01-.569-.542v-2.25c0-.299.255-.541.569-.541h2.194c.315 0 .57.242.57.541v2.25a.557.557 0 01-.57.542" fill="#F8D1AC"/><path d="M245.985 6.667h-2.194a.556.556 0 01-.569-.543V3.876c0-.3.255-.542.569-.542h2.193c.315 0 .572.242.572.542v2.249c0 .298-.256.542-.571.542" fill="#F8D1AD"/><path d="M245.985 6.667h-2.194a.558.558 0 01-.569-.543V3.875c0-.3.256-.542.57-.542h2.192c.315 0 .571.243.571.543v2.248a.558.558 0 01-.57.543" fill="#F8D2AE"/><path d="M245.984 6.667h-2.193a.557.557 0 01-.569-.543V3.876c0-.3.255-.542.57-.542h2.192c.315 0 .571.242.571.542v2.248a.559.559 0 01-.571.543" fill="#F8D2AE"/><path d="M245.984 6.667h-2.192a.558.558 0 01-.57-.544V3.876c0-.3.256-.542.57-.542h2.192c.315 0 .571.242.571.543v2.247a.56.56 0 01-.57.543" fill="#F8D3AF"/><path d="M245.984 6.667h-2.193a.557.557 0 01-.569-.543V3.876c0-.3.256-.542.569-.542h2.192c.316 0 .572.242.572.543v2.247a.56.56 0 01-.571.543" fill="#F8D3B0"/><path d="M245.984 6.667h-2.192a.559.559 0 01-.57-.544V3.877c0-.3.256-.544.57-.544h2.192c.315 0 .572.243.572.544v2.246a.559.559 0 01-.572.544" fill="#F8D4B0"/><path d="M245.984 6.667h-2.192a.558.558 0 01-.57-.544V3.877c0-.3.256-.543.57-.543h2.19a.56.56 0 01.574.544v2.245c0 .299-.257.544-.572.544" fill="#F8D4B1"/><path d="M245.984 6.667h-2.191a.56.56 0 01-.57-.544V3.877c0-.3.255-.544.57-.544h2.19c.316 0 .573.243.573.544v2.246c0 .299-.257.544-.572.544" fill="#F8D4B2"/><path d="M245.983 6.667h-2.19a.56.56 0 01-.57-.545V3.878c0-.3.256-.544.57-.544h2.19c.316 0 .572.243.572.544v2.245a.56.56 0 01-.572.544" fill="#F8D5B3"/><path d="M245.983 6.667h-2.19a.558.558 0 01-.57-.545V3.878c0-.3.255-.545.57-.545h2.19a.56.56 0 01.572.545v2.245a.56.56 0 01-.572.544" fill="#F8D5B3"/><path d="M245.982 6.667h-2.19a.56.56 0 01-.57-.545V3.878a.56.56 0 01.57-.545h2.19a.56.56 0 01.573.545v2.244a.56.56 0 01-.573.545" fill="#F9D6B4"/><path d="M245.982 6.667h-2.188a.56.56 0 01-.572-.546V3.878a.56.56 0 01.572-.545h2.187a.56.56 0 01.574.545v2.244c0 .299-.257.545-.573.545" fill="#F9D6B5"/><path d="M245.983 6.667h-2.19a.56.56 0 01-.57-.546V3.878a.56.56 0 01.57-.545h2.19a.56.56 0 01.573.545v2.243a.56.56 0 01-.573.546" fill="#F9D7B6"/><path d="M245.982 6.667h-2.187a.56.56 0 01-.573-.546V3.879c0-.301.258-.546.573-.546h2.187a.56.56 0 01.574.546v2.242c0 .3-.257.546-.574.546" fill="#F9D7B6"/><path d="M245.981 6.667h-2.187a.56.56 0 01-.572-.547V3.88a.56.56 0 01.572-.546h2.187a.56.56 0 01.574.546v2.24a.56.56 0 01-.574.546" fill="#F9D7B7"/><path d="M245.98 6.667h-2.185a.56.56 0 01-.573-.546V3.879a.56.56 0 01.573-.546h2.186a.56.56 0 01.574.547v2.24a.562.562 0 01-.574.547" fill="#F9D8B8"/><path d="M245.981 6.667h-2.186a.561.561 0 01-.573-.547V3.88a.56.56 0 01.573-.546h2.185c.318 0 .575.245.575.546v2.24c0 .3-.257.547-.574.547" fill="#F9D8B8"/><path d="M246.172 6.667h-1.457a.375.375 0 01-.382-.365V4.809c0-.201.172-.365.382-.365h1.457c.212 0 .383.163.383.365v1.493c0 .2-.171.365-.383.365" fill="#F9D9B9"/><path d="M246.172 6.667h-1.456a.375.375 0 01-.383-.365V4.809c0-.2.172-.364.383-.364h1.456c.211 0 .383.163.383.365v1.492c0 .2-.172.365-.383.365" fill="#F9D9BA"/><path d="M246.171 6.667h-1.456a.375.375 0 01-.382-.366V4.81c0-.202.172-.366.382-.366h1.456c.212 0 .385.164.385.366V6.3a.376.376 0 01-.385.366" fill="#F9DABB"/><path d="M246.171 6.667h-1.455a.375.375 0 01-.383-.366V4.81c0-.202.173-.365.383-.365h1.455c.212 0 .385.163.385.365V6.3a.376.376 0 01-.385.366" fill="#FADABB"/><path d="M246.171 6.667h-1.455a.375.375 0 01-.383-.366V4.81c0-.202.172-.366.383-.366h1.455c.212 0 .384.164.384.366V6.3a.376.376 0 01-.384.367" fill="#FADABC"/><path d="M246.171 6.667h-1.454a.376.376 0 01-.384-.366V4.81c0-.203.173-.366.384-.366h1.454c.212 0 .384.163.384.366V6.3a.376.376 0 01-.384.366" fill="#FADBBD"/><path d="M246.17 6.667h-1.454a.376.376 0 01-.383-.367V4.81c0-.202.172-.366.383-.366h1.454c.213 0 .385.164.385.366V6.3a.377.377 0 01-.385.367" fill="#FADBBD"/><path d="M246.17 6.667h-1.453a.376.376 0 01-.384-.367V4.811c0-.202.173-.366.384-.366h1.453c.213 0 .386.163.386.366v1.49a.377.377 0 01-.385.366" fill="#FADCBE"/><path d="M246.17 6.667h-1.453a.376.376 0 01-.384-.367V4.81c0-.202.173-.366.384-.366h1.453c.213 0 .386.164.386.367v1.49a.377.377 0 01-.386.366" fill="#FADCBF"/><path d="M246.17 6.667h-1.452a.377.377 0 01-.385-.367V4.81c0-.202.173-.366.385-.366h1.452c.213 0 .386.164.386.366V6.3a.377.377 0 01-.386.367" fill="#FADDC0"/><path d="M246.17 6.667h-1.453a.376.376 0 01-.384-.368V4.811c0-.202.173-.367.384-.367h1.452c.213 0 .387.165.387.368V6.3a.378.378 0 01-.387.367" fill="#FADDC0"/><path d="M246.17 6.667h-1.452a.377.377 0 01-.385-.368V4.812c0-.203.173-.368.385-.368h1.451c.213 0 .387.165.387.368v1.487a.378.378 0 01-.387.368" fill="#FBDDC1"/><path d="M246.169 6.667h-1.45a.377.377 0 01-.386-.368V4.812c0-.203.173-.368.385-.368h1.45c.214 0 .387.165.387.368V6.3a.378.378 0 01-.386.368" fill="#FBDEC2"/><path d="M246.169 6.667h-1.45a.378.378 0 01-.386-.369V4.813c0-.204.173-.369.385-.369h1.45c.214 0 .387.165.387.37v1.485a.379.379 0 01-.386.368" fill="#FBDFC3"/><path d="M246.168 6.667h-1.45a.379.379 0 01-.385-.369V4.813c0-.204.174-.369.386-.369h1.449c.214 0 .387.165.387.369v1.485a.38.38 0 01-.387.369" fill="#FBDFC4"/><path d="M246.168 6.667h-1.449a.379.379 0 01-.386-.37V4.813c0-.203.174-.368.386-.368h1.45c.213 0 .387.165.387.368v1.485a.38.38 0 01-.388.369" fill="#FBE0C4"/><path d="M246.167 6.667h-1.448a.378.378 0 01-.386-.37V4.814c0-.204.173-.37.386-.37h1.448a.38.38 0 01.389.37v1.483a.38.38 0 01-.389.37" fill="#FBE0C5"/><path d="M246.168 6.667h-1.448a.38.38 0 01-.387-.37V4.814a.38.38 0 01.387-.369h1.448a.38.38 0 01.388.37v1.482a.38.38 0 01-.388.37" fill="#FCE1C6"/><path d="M246.167 6.667h-1.447a.38.38 0 01-.387-.37V4.814a.38.38 0 01.387-.37h1.446a.38.38 0 01.39.37v1.483a.38.38 0 01-.39.37" fill="#FCE1C7"/><path d="M246.167 6.667h-1.446a.38.38 0 01-.388-.371v-1.48a.38.38 0 01.388-.371h1.445a.38.38 0 01.389.37v1.481a.38.38 0 01-.388.37" fill="#FCE2C8"/><path d="M246.166 6.667h-1.445a.38.38 0 01-.388-.371v-1.48a.38.38 0 01.388-.372h1.445a.38.38 0 01.389.371v1.48a.381.381 0 01-.39.372" fill="#FCE2C8"/><path d="M246.166 6.667h-1.445a.38.38 0 01-.388-.372v-1.48a.38.38 0 01.388-.37h1.445a.38.38 0 01.39.37v1.48a.382.382 0 01-.39.372" fill="#FCE3C9"/><path d="M246.166 6.667h-1.444a.381.381 0 01-.389-.372v-1.48a.38.38 0 01.39-.37h1.443a.38.38 0 01.39.371v1.479a.381.381 0 01-.39.372" fill="#FCE3CA"/><path d="M246.165 6.667h-1.443a.381.381 0 01-.389-.372V4.817a.38.38 0 01.389-.372h1.443a.38.38 0 01.39.372v1.478a.382.382 0 01-.39.372" fill="#FCE4CB"/><path d="M246.165 6.667h-1.443a.382.382 0 01-.389-.373V4.817c0-.206.175-.373.39-.373h1.441c.216 0 .392.167.392.373v1.477a.383.383 0 01-.391.373" fill="#FDE4CC"/><path d="M246.164 6.667h-1.442a.382.382 0 01-.389-.374V4.818c0-.207.175-.373.39-.373h1.44c.217 0 .393.166.393.373v1.475a.384.384 0 01-.392.374" fill="#FDE5CC"/><path d="M246.164 6.667h-1.44a.383.383 0 01-.39-.374V4.818c0-.207.175-.374.39-.374h1.44c.216 0 .39.167.39.374l.002 1.475a.384.384 0 01-.392.374" fill="#FDE5CD"/><path d="M246.163 6.667h-1.439a.384.384 0 01-.39-.375V4.818c0-.206.175-.373.39-.373h1.439c.216 0 .392.167.392.373v1.475a.385.385 0 01-.392.374" fill="#FDE6CE"/><path d="M246.163 6.667h-1.439a.384.384 0 01-.39-.375V4.819c0-.207.175-.375.39-.375h1.439c.216 0 .393.168.393.375v1.473a.384.384 0 01-.393.375" fill="#FDE6CF"/><path d="M246.162 6.667h-1.437a.385.385 0 01-.392-.376V4.819c0-.207.177-.375.392-.375h1.437c.217 0 .394.168.394.375v1.472a.385.385 0 01-.394.376" fill="#FDE7D0"/><path d="M246.162 6.667h-1.437a.385.385 0 01-.392-.376V4.82c0-.208.176-.376.392-.376h1.437c.216 0 .394.168.394.377v1.47a.386.386 0 01-.394.376" fill="#FDE7D1"/><path d="M245.247 5.556h-.717a.193.193 0 01-.197-.189v-.734c0-.104.089-.189.197-.189h.717c.11 0 .197.085.197.189v.734a.193.193 0 01-.197.189" fill="#FEE8D2"/><path d="M245.247 5.556h-.717a.193.193 0 01-.197-.189v-.734c0-.104.089-.189.197-.189h.717c.11 0 .197.085.197.189v.734a.193.193 0 01-.197.189" fill="#FEE9D2"/><path d="M245.246 5.556h-.716a.194.194 0 01-.197-.19v-.732c0-.105.09-.19.197-.19h.716c.11 0 .198.085.198.19v.733a.194.194 0 01-.198.189" fill="#FEE9D3"/><path d="M245.246 5.556h-.715a.194.194 0 01-.198-.19v-.732c0-.105.089-.19.198-.19h.715c.11 0 .198.085.198.19v.732c0 .105-.088.19-.198.19" fill="#FEEAD4"/><path d="M245.246 5.556h-.715a.194.194 0 01-.198-.19v-.732c0-.105.09-.19.198-.19h.715c.11 0 .198.085.198.19v.732c0 .105-.088.19-.198.19" fill="#FEEAD5"/><path d="M245.246 5.556h-.714a.195.195 0 01-.199-.19v-.732c0-.105.09-.19.199-.19h.714c.11 0 .198.085.198.19v.731c0 .105-.089.19-.198.19" fill="#FEEBD6"/><path d="M245.245 5.556h-.714a.194.194 0 01-.198-.19v-.731c0-.105.09-.19.198-.19h.714c.11 0 .2.084.2.19v.73c0 .105-.09.19-.2.19" fill="#FEEBD7"/><path d="M245.244 5.556h-.712a.195.195 0 01-.199-.192v-.729c0-.105.09-.19.2-.19h.711c.11 0 .2.085.2.19v.73c0 .105-.09.19-.2.19" fill="#FEECD8"/><path d="M245.244 5.556h-.712a.195.195 0 01-.199-.192v-.728c0-.106.09-.191.2-.191h.71c.111 0 .201.085.201.191v.728c0 .106-.09.192-.2.192" fill="#FEEDDA"/><path d="M245.244 5.556h-.711c-.11 0-.2-.087-.2-.192v-.728c0-.106.09-.192.2-.192h.71c.112 0 .201.086.201.192v.728c0 .105-.09.192-.2.192" fill="#FEEDDB"/><path d="M245.243 5.556h-.71c-.11 0-.2-.087-.2-.193v-.726c0-.106.09-.192.2-.192h.71c.112 0 .201.085.201.192v.726c0 .106-.09.193-.2.193" fill="#FEEEDC"/><path d="M245.243 5.556h-.71c-.11 0-.2-.087-.2-.193v-.726c0-.106.09-.193.2-.193h.71c.11 0 .201.087.201.193v.726c0 .106-.09.193-.201.193" fill="#FED"/><path d="M245.242 5.556h-.708c-.11 0-.2-.088-.2-.194v-.724c0-.107.09-.193.2-.193h.708c.112 0 .202.086.202.193v.724c0 .106-.09.194-.202.194" fill="#FFEFDE"/><path d="M245.242 5.556h-.707a.198.198 0 01-.202-.195v-.723c0-.107.09-.194.202-.194h.707c.112 0 .202.087.202.194v.724c0 .106-.09.194-.202.194" fill="#FFEFDF"/><path d="M245.24 5.556h-.705a.199.199 0 01-.202-.195V4.64c0-.107.091-.194.202-.194h.706a.2.2 0 01.203.194v.722a.2.2 0 01-.203.195" fill="#FFF0E0"/><path d="M245.24 5.556h-.704a.2.2 0 01-.203-.196v-.72a.2.2 0 01.203-.196h.704a.2.2 0 01.204.196v.72a.2.2 0 01-.204.196" fill="#FFF0E1"/><path d="M245.24 5.556h-.704a.2.2 0 01-.203-.196v-.72a.2.2 0 01.203-.196h.704a.2.2 0 01.204.196v.72a.201.201 0 01-.204.196" fill="#FFF1E2"/><path d="M245.24 5.556h-.703a.201.201 0 01-.204-.197V4.64a.2.2 0 01.204-.197h.702c.113 0 .205.088.205.197v.718a.201.201 0 01-.205.197" fill="#FFF2E4"/><path d="M245.24 5.556h-.702a.201.201 0 01-.205-.198v-.716c0-.11.092-.198.205-.198h.701c.113 0 .205.089.205.198v.717a.201.201 0 01-.205.197" fill="#FFF2E5"/><path d="M245.238 5.556h-.7a.203.203 0 01-.205-.199v-.715c0-.11.093-.198.206-.198h.698c.115 0 .207.089.207.198v.715c0 .11-.092.199-.206.199" fill="#FFF3E6"/><path d="M245.237 5.556h-.697a.203.203 0 01-.207-.2v-.712c0-.11.093-.2.207-.2h.697c.114 0 .207.09.207.2v.713c0 .11-.093.199-.207.199" fill="#FFF3E7"/><path d="M245.235 5.556h-.695a.204.204 0 01-.207-.201v-.71c0-.111.093-.2.207-.2h.695c.115 0 .21.089.21.2v.71c0 .11-.095.2-.21.2" fill="#FFF4E8"/><path d="M245.235 5.556h-.693a.206.206 0 01-.209-.202v-.708c0-.111.095-.202.21-.202h.692c.116 0 .21.09.21.202v.708a.205.205 0 01-.21.202" fill="#FFF5E9"/><path d="M245.233 5.556h-.69a.206.206 0 01-.21-.203v-.706c0-.112.094-.203.21-.203h.69c.117 0 .21.09.21.203l.001.706a.208.208 0 01-.21.203" fill="#FFF5EA"/><path d="M245.233 5.556h-.688a.208.208 0 01-.212-.204v-.704c0-.112.095-.204.212-.204h.688c.117 0 .211.092.211.204v.704a.208.208 0 01-.21.204" fill="#FFF6EB"/><path d="M245.23 5.556h-.685a.21.21 0 01-.212-.206v-.7a.21.21 0 01.212-.206h.685a.21.21 0 01.214.206v.7a.21.21 0 01-.214.206" fill="#FFF6EC"/><path d="M245.23 5.556h-.683a.21.21 0 01-.214-.208v-.696a.21.21 0 01.214-.208h.683c.118 0 .214.093.214.208v.696a.211.211 0 01-.214.208" fill="#FFF7ED"/><path d="M245.228 5.556h-.68a.212.212 0 01-.215-.21v-.693c0-.115.096-.209.215-.209h.68c.12 0 .216.094.216.209v.694a.213.213 0 01-.216.209" fill="#FFF7EF"/><path d="M245.226 5.556h-.677a.214.214 0 01-.216-.21v-.69c0-.117.098-.212.216-.212h.677c.121 0 .218.095.218.211v.69c0 .117-.097.21-.218.21" fill="#FFF8F0"/><path d="M245.224 5.556h-.672a.216.216 0 01-.219-.212v-.687c0-.118.1-.213.22-.213h.67c.122 0 .221.095.221.213v.687c0 .116-.1.212-.22.212" fill="#FFF8F1"/><path d="M245.222 5.556h-.67a.218.218 0 01-.219-.215v-.682c0-.118.099-.214.22-.214h.67c.122 0 .221.095.221.214v.682a.22.22 0 01-.222.215" fill="#FFF9F2"/><path d="M245.22 5.556h-.664a.22.22 0 01-.223-.217v-.677c0-.12.1-.218.223-.218h.663a.22.22 0 01.225.218v.677c0 .12-.1.217-.225.217" fill="#FFF9F3"/><path d="M245.598 5.816h-.309a.105.105 0 01-.105-.103v-.314c0-.058.047-.104.105-.104h.31c.058 0 .106.046.106.104v.314a.105.105 0 01-.107.103" fill="#FFFAF4"/><path d="M245.586 5.798h-.284a.099.099 0 01-.1-.098v-.29c0-.054.044-.097.1-.097h.284a.1.1 0 01.102.098v.29a.099.099 0 01-.102.097" fill="#FFFBF6"/><path d="M245.575 5.78h-.262a.094.094 0 01-.094-.092v-.265c0-.05.043-.092.094-.092h.262c.052 0 .095.04.095.092v.265a.094.094 0 01-.095.092" fill="#FFFBF7"/><path d="M245.562 5.763h-.237a.088.088 0 01-.088-.087v-.241c0-.048.04-.087.088-.087h.237c.05 0 .09.039.09.087v.24c0 .049-.04.088-.09.088" fill="#FFFCF8"/><path d="M245.55 5.745h-.213a.082.082 0 01-.082-.081v-.217a.08.08 0 01.082-.08h.214a.08.08 0 01.083.08v.217a.082.082 0 01-.083.08" fill="#FFFCF9"/><path d="M245.539 5.727h-.19a.076.076 0 01-.076-.076V5.46c0-.043.034-.076.077-.076h.188c.044 0 .078.033.078.076v.19a.076.076 0 01-.077.077" fill="#FFFDFA"/><path d="M245.527 5.71h-.166a.07.07 0 01-.07-.07v-.168a.07.07 0 01.07-.07h.166a.07.07 0 01.072.07v.167c0 .039-.033.07-.072.07" fill="#FFFEFC"/><path d="M245.514 5.691h-.14a.064.064 0 01-.066-.064v-.143c0-.036.029-.064.065-.064h.141c.037 0 .066.028.066.064v.143c0 .035-.03.064-.066.064" fill="#FFFEFD"/><path d="M245.563 5.615a.059.059 0 01-.06.059h-.118a.06.06 0 01-.059-.059v-.118a.06.06 0 01.059-.06h.118a.06.06 0 01.06.06v.118" fill="#FFFFFE"/></g></svg>